<svg height="511pt" viewBox="-43 1 511 511.999" width="511pt" xmlns="http://www.w3.org/2000/svg"><path d="m425.8125 90.8125c0-50.074219-40.738281-90.8125-90.8125-90.8125h-243.683594c-50.078125 0-90.816406 40.738281-90.816406 90.8125v330.371094c0 50.078125 40.738281 90.816406 90.816406 90.816406h243.683594c50.074219 0 90.8125-40.738281 90.8125-90.816406zm-334.496094-75.8125h243.683594c41.804688 0 75.8125 34.011719 75.8125 75.8125v74.851562h-395.3125v-74.851562c0-41.800781 34.011719-75.8125 75.816406-75.8125zm243.683594 482h-243.683594c-41.808594 0-75.816406-34.011719-75.816406-75.816406v-74.851563h26.761719c4.140625 0 7.5-3.355469 7.5-7.5 0-4.140625-3.359375-7.5-7.5-7.5h-26.761719v-150.667969h395.3125v150.667969h-334.679688c-4.140624 0-7.5 3.359375-7.5 7.5 0 4.144531 3.359376 7.5 7.5 7.5h334.679688v74.851563c0 41.804687-34.007812 75.816406-75.8125 75.816406zm0 0"/><path d="m329.207031 126.714844c6.621094 0 13.101563-1.800782 18.75-5.199219 3.550781-2.136719 4.695313-6.746094 2.558594-10.292969-2.136719-3.550781-6.746094-4.695312-10.296875-2.558594-3.3125 1.996094-7.117188 3.050782-11.011719 3.050782-11.789062 0-21.378906-9.59375-21.378906-21.382813 0-11.789062 9.589844-21.378906 21.378906-21.378906 10.726563 0 19.84375 8.007813 21.207031 18.621094.527344 4.109375 4.273438 7.011719 8.394532 6.484375 4.105468-.527344 7.011718-4.285156 6.484375-8.394532-2.320313-18.078124-17.835938-31.714843-36.085938-31.714843-20.058593 0-36.378906 16.320312-36.378906 36.382812s16.320313 36.382813 36.378906 36.382813zm0 0"/><path d="m158.335938 117.230469h89.21875c14.832031 0 26.898437-12.066407 26.898437-26.898438 0-14.828125-12.066406-26.894531-26.898437-26.894531h-89.21875c-14.832032 0-26.898438 12.066406-26.898438 26.894531 0 14.832031 12.066406 26.898438 26.898438 26.898438zm0-38.792969h89.21875c6.5625 0 11.898437 5.335938 11.898437 11.894531 0 6.5625-5.335937 11.898438-11.898437 11.898438h-89.21875c-6.5625 0-11.898438-5.339844-11.898438-11.898438 0-6.558593 5.335938-11.894531 11.898438-11.894531zm0 0"/><path d="m329.207031 292.378906c20.0625 0 36.382813-16.320312 36.382813-36.378906 0-20.0625-16.320313-36.382812-36.382813-36.382812-20.058593 0-36.378906 16.320312-36.378906 36.382812 0 20.058594 16.320313 36.378906 36.378906 36.378906zm0-57.761718c11.789063 0 21.382813 9.59375 21.382813 21.382812s-9.59375 21.378906-21.382813 21.378906c-11.789062 0-21.378906-9.589844-21.378906-21.378906s9.589844-21.382812 21.378906-21.382812zm0 0"/><path d="m158.335938 282.894531h89.21875c14.832031 0 26.898437-12.066406 26.898437-26.894531 0-14.832031-12.066406-26.894531-26.898437-26.894531h-89.21875c-14.832032 0-26.898438 12.0625-26.898438 26.894531 0 14.828125 12.066406 26.894531 26.898438 26.894531zm0-38.789062h89.21875c6.5625 0 11.898437 5.335937 11.898437 11.894531s-5.335937 11.894531-11.898437 11.894531h-89.21875c-6.5625 0-11.898438-5.335937-11.898438-11.894531s5.335938-11.894531 11.898438-11.894531zm0 0"/><path d="m329.207031 385.285156c-20.058593 0-36.378906 16.320313-36.378906 36.378906 0 20.0625 16.320313 36.382813 36.378906 36.382813 20.0625 0 36.382813-16.320313 36.382813-36.382813 0-20.058593-16.320313-36.378906-36.382813-36.378906zm0 57.761719c-11.789062 0-21.378906-9.59375-21.378906-21.382813 0-11.785156 9.589844-21.378906 21.378906-21.378906 11.789063 0 21.382813 9.59375 21.382813 21.378906 0 11.789063-9.59375 21.382813-21.382813 21.382813zm0 0"/><path d="m247.554688 394.769531h-89.21875c-14.832032 0-26.898438 12.066407-26.898438 26.894531 0 14.832032 12.066406 26.898438 26.898438 26.898438h89.21875c14.832031 0 26.898437-12.066406 26.898437-26.898438 0-14.828124-12.066406-26.894531-26.898437-26.894531zm0 38.792969h-89.21875c-6.5625 0-11.898438-5.335938-11.898438-11.898438 0-6.558593 5.335938-11.894531 11.898438-11.894531h89.21875c6.5625 0 11.898437 5.335938 11.898437 11.894531 0 6.5625-5.335937 11.898438-11.898437 11.898438zm0 0"/></svg>