<?xml version="1.0" encoding="UTF-8" standalone="no"?>
<!-- Generator: Adobe Illustrator 19.0.0, SVG Export Plug-In . SVG Version: 6.00 Build 0)  -->

<svg
   xmlns:dc="http://purl.org/dc/elements/1.1/"
   xmlns:cc="http://creativecommons.org/ns#"
   xmlns:rdf="http://www.w3.org/1999/02/22-rdf-syntax-ns#"
   xmlns:svg="http://www.w3.org/2000/svg"
   xmlns="http://www.w3.org/2000/svg"
   xmlns:sodipodi="http://sodipodi.sourceforge.net/DTD/sodipodi-0.dtd"
   xmlns:inkscape="http://www.inkscape.org/namespaces/inkscape"
   version="1.1"
   id="Capa_1"
   x="0px"
   y="0px"
   viewBox="0 0 512 512"
   style="enable-background:new 0 0 512 512;"
   xml:space="preserve"
   sodipodi:docname="category_white.svg"
   inkscape:version="0.92.3 (2405546, 2018-03-11)"><metadata
   id="metadata67"><rdf:RDF><cc:Work
       rdf:about=""><dc:format>image/svg+xml</dc:format><dc:type
         rdf:resource="http://purl.org/dc/dcmitype/StillImage" /></cc:Work></rdf:RDF></metadata><defs
   id="defs65" /><sodipodi:namedview
   pagecolor="#ffffff"
   bordercolor="#666666"
   borderopacity="1"
   objecttolerance="10"
   gridtolerance="10"
   guidetolerance="10"
   inkscape:pageopacity="0"
   inkscape:pageshadow="2"
   inkscape:window-width="1920"
   inkscape:window-height="1057"
   id="namedview63"
   showgrid="false"
   inkscape:zoom="0.4609375"
   inkscape:cx="-441.49153"
   inkscape:cy="256"
   inkscape:window-x="1358"
   inkscape:window-y="-1"
   inkscape:window-maximized="1"
   inkscape:current-layer="Capa_1" />
<g
   id="g6"
   style="fill:#f9f9f9"
   transform="translate(-20,-20)">
	<g
   id="g4"
   style="fill:#f9f9f9">
		<path
   d="M 221.56,85.691 H 110.739 c -14.008,0 -25.404,11.396 -25.404,25.404 v 110.821 c 0,14.008 11.396,25.404 25.404,25.404 H 221.56 c 14.008,0 25.405,-11.396 25.405,-25.405 v -110.82 c 0,-14.008 -11.397,-25.404 -25.405,-25.404 z m 9.193,136.225 c 0,5.069 -4.124,9.193 -9.193,9.193 H 110.739 c -5.068,0 -9.192,-4.124 -9.192,-9.193 V 111.095 c 0,-5.068 4.124,-9.192 9.192,-9.192 H 221.56 c 5.069,0 9.193,4.124 9.193,9.192 z"
   id="path2"
   style="fill:#f9f9f9"
   inkscape:connector-curvature="0" />
	</g>
</g>
<g
   id="g12"
   style="fill:#f9f9f9"
   transform="translate(20,-20)">
	<g
   id="g10"
   style="fill:#f9f9f9">
		<path
   d="m 418.559,132.265 c 4.477,0 8.106,-3.629 8.106,-8.106 v -13.064 c 0,-14.008 -11.396,-25.404 -25.404,-25.404 H 290.44 c -14.008,0 -25.405,11.396 -25.405,25.404 v 110.821 c 0,14.008 11.397,25.405 25.405,25.405 h 110.821 c 14.008,0 25.404,-11.396 25.404,-25.405 v -68.417 c 0,-4.477 -3.629,-8.106 -8.106,-8.106 -4.477,0 -8.106,3.629 -8.106,8.106 v 68.417 c 0,5.069 -4.124,9.193 -9.192,9.193 H 290.44 c -5.069,0 -9.193,-4.124 -9.193,-9.193 V 111.095 c 0,-5.068 4.124,-9.192 9.193,-9.192 h 110.821 c 5.068,0 9.192,4.124 9.192,9.192 v 13.064 c 0,4.476 3.628,8.106 8.106,8.106 z"
   id="path8"
   style="fill:#f9f9f9"
   inkscape:connector-curvature="0" />
	</g>
</g>
<g
   id="g18"
   style="fill:#f9f9f9"
   transform="translate(-20,20)">
	<g
   id="g16"
   style="fill:#f9f9f9">
		<path
   d="M 221.56,264.679 H 110.739 c -14.008,0 -25.404,11.396 -25.404,25.405 v 110.821 c 0,14.008 11.396,25.405 25.404,25.405 H 221.56 c 14.008,0 25.405,-11.396 25.405,-25.405 V 290.084 c 0,-14.008 -11.397,-25.405 -25.405,-25.405 z m 9.193,136.226 c 0,5.069 -4.124,9.193 -9.193,9.193 H 110.739 c -5.068,0 -9.192,-4.124 -9.192,-9.193 V 290.084 c 0,-5.069 4.124,-9.193 9.192,-9.193 H 221.56 c 5.069,0 9.193,4.124 9.193,9.193 z"
   id="path14"
   style="fill:#f9f9f9"
   inkscape:connector-curvature="0" />
	</g>
</g>
<g
   id="g24"
   style="fill:#f9f9f9"
   transform="translate(20,20)">
	<g
   id="g22"
   style="fill:#f9f9f9">
		<path
   d="M 401.261,264.679 H 290.44 c -14.008,0 -25.405,11.396 -25.405,25.405 v 110.821 c 0,14.008 11.397,25.405 25.405,25.405 h 110.821 c 14.008,0 25.404,-11.396 25.404,-25.405 V 290.084 c 0,-14.008 -11.396,-25.405 -25.404,-25.405 z m 9.192,136.226 c 0,5.069 -4.124,9.193 -9.192,9.193 H 290.44 c -5.069,0 -9.193,-4.124 -9.193,-9.193 V 290.084 c 0,-5.069 4.124,-9.193 9.193,-9.193 h 110.821 c 5.068,0 9.192,4.124 9.192,9.193 z"
   id="path20"
   style="fill:#f9f9f9"
   inkscape:connector-curvature="0" />
	</g>
</g>
<g
   id="g30"
   style="fill:#f9f9f9">
	<g
   id="g28"
   style="fill:#f9f9f9">
		<path
   d="M457.661,0H54.339C24.376,0,0,24.377,0,54.339v352.213c0,4.477,3.629,8.106,8.106,8.106s8.106-3.629,8.106-8.106V54.339    c0-21.023,17.104-38.127,38.127-38.127h403.323c21.023,0,38.127,17.104,38.127,38.127v403.322    c0,21.023-17.104,38.127-38.127,38.127H54.339c-21.023,0-38.127-17.104-38.127-38.127v-18.102c0-4.477-3.629-8.106-8.106-8.106    S0,435.082,0,439.559v18.102C0,487.624,24.376,512,54.339,512h403.323C487.624,512,512,487.624,512,457.661V54.339    C512,24.377,487.624,0,457.661,0z"
   id="path26"
   style="fill:#f9f9f9" />
	</g>
</g>
<g
   id="g32"
   style="fill:#f9f9f9">
</g>
<g
   id="g34"
   style="fill:#f9f9f9">
</g>
<g
   id="g36"
   style="fill:#f9f9f9">
</g>
<g
   id="g38"
   style="fill:#f9f9f9">
</g>
<g
   id="g40"
   style="fill:#f9f9f9">
</g>
<g
   id="g42"
   style="fill:#f9f9f9">
</g>
<g
   id="g44"
   style="fill:#f9f9f9">
</g>
<g
   id="g46"
   style="fill:#f9f9f9">
</g>
<g
   id="g48"
   style="fill:#f9f9f9">
</g>
<g
   id="g50"
   style="fill:#f9f9f9">
</g>
<g
   id="g52"
   style="fill:#f9f9f9">
</g>
<g
   id="g54"
   style="fill:#f9f9f9">
</g>
<g
   id="g56"
   style="fill:#f9f9f9">
</g>
<g
   id="g58"
   style="fill:#f9f9f9">
</g>
<g
   id="g60"
   style="fill:#f9f9f9">
</g>
</svg>