<?xml version="1.0" encoding="UTF-8" standalone="no"?>
<!-- Generator: Adobe Illustrator 19.0.0, SVG Export Plug-In . SVG Version: 6.00 Build 0)  -->

<svg
   xmlns:dc="http://purl.org/dc/elements/1.1/"
   xmlns:cc="http://creativecommons.org/ns#"
   xmlns:rdf="http://www.w3.org/1999/02/22-rdf-syntax-ns#"
   xmlns:svg="http://www.w3.org/2000/svg"
   xmlns="http://www.w3.org/2000/svg"
   xmlns:sodipodi="http://sodipodi.sourceforge.net/DTD/sodipodi-0.dtd"
   xmlns:inkscape="http://www.inkscape.org/namespaces/inkscape"
   version="1.1"
   id="Capa_1"
   x="0px"
   y="0px"
   viewBox="0 0 512 512"
   style="enable-background:new 0 0 512 512;"
   xml:space="preserve"
   sodipodi:docname="category_colorful.svg"
   inkscape:version="0.92.3 (2405546, 2018-03-11)"><metadata
   id="metadata61"><rdf:RDF><cc:Work
       rdf:about=""><dc:format>image/svg+xml</dc:format><dc:type
         rdf:resource="http://purl.org/dc/dcmitype/StillImage" /></cc:Work></rdf:RDF></metadata><defs
   id="defs59" /><sodipodi:namedview
   pagecolor="#ffffff"
   bordercolor="#666666"
   borderopacity="1"
   objecttolerance="10"
   gridtolerance="10"
   guidetolerance="10"
   inkscape:pageopacity="0"
   inkscape:pageshadow="2"
   inkscape:window-width="1366"
   inkscape:window-height="715"
   id="namedview57"
   showgrid="false"
   inkscape:zoom="0.4609375"
   inkscape:cx="-14.101695"
   inkscape:cy="256"
   inkscape:window-x="-8"
   inkscape:window-y="-8"
   inkscape:window-maximized="1"
   inkscape:current-layer="g14" />
<path
   style="fill:#FFD2D1;"
   d="M504,457.767C504,483.301,483.301,504,457.767,504H54.233C28.699,504,8,483.301,8,457.767V54.233  C8,28.699,28.699,8,54.233,8h403.534C483.301,8,504,28.699,504,54.233V457.767z"
   id="path2" />
<path
   style="fill:#FFC7C7;"
   d="M457.661,8h-13.609C412.851,230,233,404.503,8,427.025v30.637C8,483.195,28.805,504,54.339,504  h403.322C483.195,504,504,483.195,504,457.661V54.339C504,28.805,483.195,8,457.661,8z"
   id="path4" />
<path
   style="fill:#fe6c6b"
   d="M 218,201.701 C 218,211.255 210.255,219 200.701,219 H 90.299 C 80.745,219 73,211.255 73,201.701 V 91.299 C 73,81.745 80.745,74 90.299,74 h 110.403 c 9.554,0 17.299,7.745 17.299,17.299 z"
   id="path6"
   inkscape:connector-curvature="0" />
<path
   style="fill:#fe0000"
   d="M 438,201.701 C 438,211.255 430.255,219 420.701,219 H 310.299 C 300.745,219 293,211.255 293,201.701 V 91.299 C 293,81.745 300.745,74 310.299,74 h 110.403 c 9.554,0 17.299,7.745 17.299,17.299 v 110.402 z"
   id="path8"
   inkscape:connector-curvature="0" />
<g
   id="g14">
	<path
   style="fill:#fe6c6b"
   d="M 218,420.701 C 218,430.255 210.255,438 200.701,438 H 90.299 C 80.745,438 73,430.255 73,420.701 V 310.299 C 73,300.745 80.745,293 90.299,293 h 110.403 c 9.554,0 17.299,7.745 17.299,17.299 z"
   id="path10"
   inkscape:connector-curvature="0" />
	<path
   style="fill:#fe6c6b"
   d="M 438,420.701 C 438,430.255 430.255,438 420.701,438 H 310.299 C 300.745,438 293,430.255 293,420.701 V 310.299 C 293,300.745 300.745,293 310.299,293 h 110.403 c 9.554,0 17.299,7.745 17.299,17.299 v 110.402 z"
   id="path12"
   inkscape:connector-curvature="0" />
</g>
<path
   d="M 227,91.405 C 227,77.374 215.626,66 201.596,66 H 90.404 C 76.374,66 65,77.374 65,91.405 V 202.596 C 65,216.626 76.374,228 90.404,228 H 201.596 C 215.626,228 227,216.626 227,202.595 Z M 82,91.095 C 82,86.027 85.671,82 90.739,82 H 201.56 c 5.069,0 9.44,4.026 9.44,9.095 v 110.821 c 0,5.069 -4.37,9.084 -9.44,9.084 H 90.739 C 85.671,211 82,206.985 82,201.916 Z"
   id="path16"
   inkscape:connector-curvature="0" />
<path
   d="m 438.5,112.265 c 4.477,0 8.5,-3.629 8.5,-8.106 V 91.095 C 447,77.087 435.269,66 421.261,66 H 310.44 C 296.432,66 285,77.087 285,91.095 V 201.916 C 285,215.924 296.432,227 310.44,227 H 421.261 C 435.269,227 447,215.924 447,201.916 v -68.417 c 0,-4.477 -4.023,-8.106 -8.5,-8.106 -4.477,0 -8.5,3.629 -8.5,8.106 v 68.417 c 0,5.069 -3.671,9.084 -8.739,9.084 H 310.44 c -5.069,0 -9.44,-4.015 -9.44,-9.084 V 91.095 C 301,86.027 305.37,82 310.44,82 h 110.821 c 5.068,0 8.739,4.026 8.739,9.095 v 13.064 c 0,4.476 4.023,8.106 8.5,8.106 z"
   id="path18"
   inkscape:connector-curvature="0" />
<path
   d="M 227,310.405 C 227,296.374 215.626,285 201.596,285 H 90.404 C 76.374,285 65,296.374 65,310.405 V 421.596 C 65,435.626 76.374,447 90.404,447 H 201.596 C 215.626,447 227,435.626 227,421.595 Z M 82,310.084 C 82,305.015 85.671,301 90.739,301 H 201.56 c 5.069,0 9.44,4.015 9.44,9.084 v 110.821 c 0,5.069 -4.37,9.095 -9.44,9.095 H 90.739 C 85.671,430 82,425.974 82,420.905 Z"
   id="path20"
   inkscape:connector-curvature="0" />
<path
   d="M 447,310.405 C 447,296.374 435.626,285 421.595,285 H 310.405 C 296.374,285 285,296.374 285,310.405 v 111.191 c 0,14.03 11.374,25.404 25.405,25.404 h 111.19 C 435.626,447 447,435.626 447,421.595 Z m -146,-0.321 c 0,-5.069 4.37,-9.084 9.44,-9.084 h 110.821 c 5.068,0 8.739,4.015 8.739,9.084 v 110.821 c 0,5.069 -3.671,9.095 -8.739,9.095 H 310.44 c -5.069,0 -9.44,-4.026 -9.44,-9.095 z"
   id="path22"
   inkscape:connector-curvature="0" />
<path
   d="M457.661,0H54.339C24.376,0,0,24.377,0,54.339v352.213c0,4.477,3.523,8.106,8,8.106s8-3.629,8-8.106V54.339  C16,33.316,33.316,16,54.339,16h403.323C478.684,16,496,33.316,496,54.339v403.322C496,478.684,478.684,496,457.661,496H54.339  C33.316,496,16,478.684,16,457.661v-18.102c0-4.477-3.523-8.106-8-8.106s-8,3.629-8,8.106v18.102C0,487.624,24.376,512,54.339,512  h403.323C487.624,512,512,487.624,512,457.661V54.339C512,24.377,487.624,0,457.661,0z"
   id="path24" />
<g
   id="g26">
</g>
<g
   id="g28">
</g>
<g
   id="g30">
</g>
<g
   id="g32">
</g>
<g
   id="g34">
</g>
<g
   id="g36">
</g>
<g
   id="g38">
</g>
<g
   id="g40">
</g>
<g
   id="g42">
</g>
<g
   id="g44">
</g>
<g
   id="g46">
</g>
<g
   id="g48">
</g>
<g
   id="g50">
</g>
<g
   id="g52">
</g>
<g
   id="g54">
</g>
</svg>