<?xml version="1.0" encoding="UTF-8" standalone="no"?>
<svg
   xmlns:dc="http://purl.org/dc/elements/1.1/"
   xmlns:cc="http://creativecommons.org/ns#"
   xmlns:rdf="http://www.w3.org/1999/02/22-rdf-syntax-ns#"
   xmlns:svg="http://www.w3.org/2000/svg"
   xmlns="http://www.w3.org/2000/svg"
   xmlns:sodipodi="http://sodipodi.sourceforge.net/DTD/sodipodi-0.dtd"
   xmlns:inkscape="http://www.inkscape.org/namespaces/inkscape"
   height="512pt"
   viewBox="0 0 512 512"
   width="512pt"
   version="1.1"
   id="svg6"
   sodipodi:docname="close.svg"
   inkscape:version="0.92.4 (5da689c313, 2019-01-14)">
  <metadata
     id="metadata12">
    <rdf:RDF>
      <cc:Work
         rdf:about="">
        <dc:format>image/svg+xml</dc:format>
        <dc:type
           rdf:resource="http://purl.org/dc/dcmitype/StillImage" />
      </cc:Work>
    </rdf:RDF>
  </metadata>
  <defs
     id="defs10" />
  <sodipodi:namedview
     pagecolor="#ffffff"
     bordercolor="#666666"
     borderopacity="1"
     objecttolerance="10"
     gridtolerance="10"
     guidetolerance="10"
     inkscape:pageopacity="0"
     inkscape:pageshadow="2"
     inkscape:window-width="1366"
     inkscape:window-height="715"
     id="namedview8"
     showgrid="false"
     inkscape:zoom="0.34570313"
     inkscape:cx="-435.34463"
     inkscape:cy="341.33333"
     inkscape:window-x="-8"
     inkscape:window-y="-8"
     inkscape:window-maximized="1"
     inkscape:current-layer="svg6" />
  <path
     d="m 358.21646,472.46438 -90.04037,-90.04037 c -6.71105,-6.71104 -17.64168,-6.71715 -24.35273,0 l -90.04037,90.04037 c -31.55229,31.5523 -82.889654,31.5523 -114.435843,0 -31.5522957,-31.55229 -31.5522957,-82.88966 0,-114.43584 4.579877,-4.57988 11.999277,-4.57988 16.579152,0 4.579876,4.57987 4.579876,11.99927 0,16.57915 -10.802401,10.8024 -29.970711,52.80292 0,81.27143 29.970711,28.47462 70.475141,10.8024 81.271431,0 l 90.04037,-90.04037 c 15.85859,-15.85248 41.66466,-15.85248 57.51714,0 l 90.04037,90.04037 c 10.8024,10.8024 50.47024,32.41331 81.27754,0 34.72768,-36.52909 10.8024,-70.46903 0,-81.27143 l -90.04037,-90.04037 c -15.85858,-15.85859 -15.85858,-41.65856 0,-57.51714 l 90.04037,-90.04037 c 10.8024,-10.8024 30.17833,-51.239658 0,-81.27754 -35.72304,-35.55816 -70.47514,-10.796295 -81.27754,0 l -90.04037,90.04037 c -15.85248,15.85858 -41.65855,15.85858 -57.51714,0 L 137.19773,55.73227 c -10.79629,-10.796295 -47.435304,-30.550829 -81.271431,0 -33.842232,30.556935 -10.802401,70.47514 0,81.27754 l 90.040371,90.04037 c 15.85858,15.85858 15.85858,41.65855 0,57.51714 l -55.440931,55.43482 c -4.579877,4.57988 -11.999277,4.57988 -16.579152,0 -4.579878,-4.57987 -4.579878,-11.99927 0,-16.57915 l 55.440933,-55.43482 c 6.71104,-6.71715 6.71104,-17.64169 0,-24.35884 L 39.347147,153.58896 c -31.5522957,-31.54619 -31.5522957,-82.883547 0,-114.435842 31.552295,-31.5522958 82.883553,-31.5522958 114.435843,0 l 90.04037,90.040372 c 6.71715,6.71715 17.64168,6.71715 24.35273,0 l 90.04648,-90.040372 c 31.54618,-31.5461896 82.88354,-31.5461896 114.43584,0 31.54619,31.552295 31.54619,82.889652 0,114.435842 l -90.04648,90.04648 c -6.71104,6.71104 -6.71104,17.63558 0,24.35273 l 90.04037,90.04037 c 31.5523,31.55229 31.5523,82.88355 0,114.43584 -15.77309,15.7792 -67.23869,46.6781 -114.43584,0 z m 0,0"
     id="path4"
     inkscape:connector-curvature="0"
     style="stroke-width:1.56326449" />
</svg>
