<?xml version="1.0" encoding="iso-8859-1"?>
<!-- Generator: Adobe Illustrator 19.0.0, SVG Export Plug-In . SVG Version: 6.00 Build 0)  -->
<svg version="1.1" id="Capa_1" xmlns="http://www.w3.org/2000/svg" xmlns:xlink="http://www.w3.org/1999/xlink" x="0px" y="0px"
	 viewBox="0 0 512 512" style="enable-background:new 0 0 512 512;" xml:space="preserve">
<g>
	<g>
		<path d="M452,48H326v-7.667C326,18.094,307.906,0,285.667,0h-59.334C204.094,0,186,18.094,186,40.333V48H60
			c-16.542,0-30,13.458-30,30v52c0,5.522,4.478,10,10,10h14v107.667c0,5.522,4.478,10,10,10c5.522,0,10-4.478,10-10V140h133.786
			c5.522,0,10-4.478,10-10c0-5.522-4.478-10-10-10H50V78c0-5.514,4.486-10,10-10h136h120h136c5.514,0,10,4.486,10,10v42H299.875
			c-5.522,0-10,4.478-10,10c0,5.522,4.478,10,10,10H438v314c0,20.953-17.047,38-38,38H112c-20.953,0-38-17.047-38-38V346.333
			c0-5.522-4.478-10-10-10c-5.522,0-10,4.478-10,10V454c0,31.981,26.019,58,58,58h288c31.981,0,58-26.019,58-58V140h14
			c5.522,0,10-4.478,10-10V78C482,61.458,468.542,48,452,48z M306,48H206v-7.667C206,29.121,215.121,20,226.333,20h59.334
			C296.879,20,306,29.121,306,40.333V48z"/>
	</g>
</g>
<g>
	<g>
		<path d="M263.069,128.93C261.21,127.07,258.63,126,256,126s-5.21,1.069-7.07,2.93c-1.86,1.861-2.93,4.44-2.93,7.07
			s1.069,5.21,2.93,7.069c1.86,1.86,4.44,2.931,7.07,2.931s5.21-1.07,7.069-2.931C264.93,141.21,266,138.63,266,136
			S264.93,130.79,263.069,128.93z"/>
	</g>
</g>
<g>
	<g>
		<path d="M152,174c-18.748,0-34,15.252-34,34v216c0,18.748,15.252,34,34,34s34-15.252,34-34V208C186,189.252,170.748,174,152,174z
			 M166,424c0,7.72-6.28,14-14,14c-7.72,0-14-6.28-14-14V208c0-7.72,6.28-14,14-14c7.72,0,14,6.28,14,14V424z"/>
	</g>
</g>
<g>
	<g>
		<path d="M256.127,174c-18.748,0-34,15.252-34,34v216c0,18.748,15.252,34,34,34c18.748,0,34-15.252,34-34V208
			C290.127,189.252,274.875,174,256.127,174z M270.127,424c0,7.72-6.28,14-14,14c-7.72,0-14-6.28-14-14V208c0-7.72,6.28-14,14-14
			s14,6.28,14,14V424z"/>
	</g>
</g>
<g>
	<g>
		<path d="M360.254,174c-18.748,0-34,15.252-34,34v216c0,18.748,15.252,34,34,34s34-15.252,34-34V208
			C394.254,189.252,379.002,174,360.254,174z M374.254,424c0,7.72-6.28,14-14,14c-7.72,0-14-6.28-14-14V208c0-7.72,6.28-14,14-14
			c7.72,0,14,6.28,14,14V424z"/>
	</g>
</g>
<g>
	<g>
		<path d="M71.069,291.26c-1.859-1.86-4.439-2.93-7.069-2.93s-5.21,1.069-7.07,2.93c-1.86,1.861-2.93,4.44-2.93,7.07
			c0,2.64,1.069,5.21,2.93,7.069c1.86,1.871,4.44,2.931,7.07,2.931s5.21-1.061,7.069-2.931C72.93,303.54,74,300.96,74,298.33
			S72.93,293.12,71.069,291.26z"/>
	</g>
</g>
<g>
</g>
<g>
</g>
<g>
</g>
<g>
</g>
<g>
</g>
<g>
</g>
<g>
</g>
<g>
</g>
<g>
</g>
<g>
</g>
<g>
</g>
<g>
</g>
<g>
</g>
<g>
</g>
<g>
</g>
</svg>
