<?xml version="1.0" encoding="UTF-8" standalone="no"?>
<!-- Generator: Adobe Illustrator 19.0.0, SVG Export Plug-In . SVG Version: 6.00 Build 0)  -->

<svg
   xmlns:dc="http://purl.org/dc/elements/1.1/"
   xmlns:cc="http://creativecommons.org/ns#"
   xmlns:rdf="http://www.w3.org/1999/02/22-rdf-syntax-ns#"
   xmlns:svg="http://www.w3.org/2000/svg"
   xmlns="http://www.w3.org/2000/svg"
   xmlns:sodipodi="http://sodipodi.sourceforge.net/DTD/sodipodi-0.dtd"
   xmlns:inkscape="http://www.inkscape.org/namespaces/inkscape"
   version="1.1"
   id="Capa_1"
   x="0px"
   y="0px"
   viewBox="0 0 512 512"
   style="enable-background:new 0 0 512 512;"
   xml:space="preserve"
   sodipodi:docname="delete_white.svg"
   inkscape:version="0.92.4 (5da689c313, 2019-01-14)"><metadata
   id="metadata73"><rdf:RDF><cc:Work
       rdf:about=""><dc:format>image/svg+xml</dc:format><dc:type
         rdf:resource="http://purl.org/dc/dcmitype/StillImage" /><dc:title></dc:title></cc:Work></rdf:RDF></metadata><defs
   id="defs71" /><sodipodi:namedview
   pagecolor="#ffffff"
   bordercolor="#666666"
   borderopacity="1"
   objecttolerance="10"
   gridtolerance="10"
   guidetolerance="10"
   inkscape:pageopacity="0"
   inkscape:pageshadow="2"
   inkscape:window-width="679"
   inkscape:window-height="480"
   id="namedview69"
   showgrid="false"
   inkscape:zoom="0.4609375"
   inkscape:cx="-14.101695"
   inkscape:cy="256"
   inkscape:window-x="0"
   inkscape:window-y="0"
   inkscape:window-maximized="0"
   inkscape:current-layer="Capa_1" />
<g
   id="g6"
   style="fill:#ffffff">
	<g
   id="g4"
   style="fill:#ffffff">
		<path
   d="M452,48H326v-7.667C326,18.094,307.906,0,285.667,0h-59.334C204.094,0,186,18.094,186,40.333V48H60    c-16.542,0-30,13.458-30,30v52c0,5.522,4.478,10,10,10h14v107.667c0,5.522,4.478,10,10,10c5.522,0,10-4.478,10-10V140h133.786    c5.522,0,10-4.478,10-10c0-5.522-4.478-10-10-10H50V78c0-5.514,4.486-10,10-10h136h120h136c5.514,0,10,4.486,10,10v42H299.875    c-5.522,0-10,4.478-10,10c0,5.522,4.478,10,10,10H438v314c0,20.953-17.047,38-38,38H112c-20.953,0-38-17.047-38-38V346.333    c0-5.522-4.478-10-10-10c-5.522,0-10,4.478-10,10V454c0,31.981,26.019,58,58,58h288c31.981,0,58-26.019,58-58V140h14    c5.522,0,10-4.478,10-10V78C482,61.458,468.542,48,452,48z M306,48H206v-7.667C206,29.121,215.121,20,226.333,20h59.334    C296.879,20,306,29.121,306,40.333V48z"
   id="path2"
   style="fill:#ffffff" />
	</g>
</g>
<g
   id="g12"
   style="fill:#ffffff">
	<g
   id="g10"
   style="fill:#ffffff">
		<path
   d="M263.069,128.93C261.21,127.07,258.63,126,256,126s-5.21,1.069-7.07,2.93c-1.86,1.861-2.93,4.44-2.93,7.07    s1.069,5.21,2.93,7.069c1.86,1.86,4.44,2.931,7.07,2.931s5.21-1.07,7.069-2.931C264.93,141.21,266,138.63,266,136    S264.93,130.79,263.069,128.93z"
   id="path8"
   style="fill:#ffffff" />
	</g>
</g>
<g
   id="g18"
   style="fill:#ffffff">
	<g
   id="g16"
   style="fill:#ffffff">
		<path
   d="M152,174c-18.748,0-34,15.252-34,34v216c0,18.748,15.252,34,34,34s34-15.252,34-34V208C186,189.252,170.748,174,152,174z     M166,424c0,7.72-6.28,14-14,14c-7.72,0-14-6.28-14-14V208c0-7.72,6.28-14,14-14c7.72,0,14,6.28,14,14V424z"
   id="path14"
   style="fill:#ffffff" />
	</g>
</g>
<g
   id="g24"
   style="fill:#ffffff">
	<g
   id="g22"
   style="fill:#ffffff">
		<path
   d="M256.127,174c-18.748,0-34,15.252-34,34v216c0,18.748,15.252,34,34,34c18.748,0,34-15.252,34-34V208    C290.127,189.252,274.875,174,256.127,174z M270.127,424c0,7.72-6.28,14-14,14c-7.72,0-14-6.28-14-14V208c0-7.72,6.28-14,14-14    s14,6.28,14,14V424z"
   id="path20"
   style="fill:#ffffff" />
	</g>
</g>
<g
   id="g30"
   style="fill:#ffffff">
	<g
   id="g28"
   style="fill:#ffffff">
		<path
   d="M360.254,174c-18.748,0-34,15.252-34,34v216c0,18.748,15.252,34,34,34s34-15.252,34-34V208    C394.254,189.252,379.002,174,360.254,174z M374.254,424c0,7.72-6.28,14-14,14c-7.72,0-14-6.28-14-14V208c0-7.72,6.28-14,14-14    c7.72,0,14,6.28,14,14V424z"
   id="path26"
   style="fill:#ffffff" />
	</g>
</g>
<g
   id="g36"
   style="fill:#ffffff">
	<g
   id="g34"
   style="fill:#ffffff">
		<path
   d="M71.069,291.26c-1.859-1.86-4.439-2.93-7.069-2.93s-5.21,1.069-7.07,2.93c-1.86,1.861-2.93,4.44-2.93,7.07    c0,2.64,1.069,5.21,2.93,7.069c1.86,1.871,4.44,2.931,7.07,2.931s5.21-1.061,7.069-2.931C72.93,303.54,74,300.96,74,298.33    S72.93,293.12,71.069,291.26z"
   id="path32"
   style="fill:#ffffff" />
	</g>
</g>
<g
   id="g38"
   style="fill:#ffffff">
</g>
<g
   id="g40"
   style="fill:#ffffff">
</g>
<g
   id="g42"
   style="fill:#ffffff">
</g>
<g
   id="g44"
   style="fill:#ffffff">
</g>
<g
   id="g46"
   style="fill:#ffffff">
</g>
<g
   id="g48"
   style="fill:#ffffff">
</g>
<g
   id="g50"
   style="fill:#ffffff">
</g>
<g
   id="g52"
   style="fill:#ffffff">
</g>
<g
   id="g54"
   style="fill:#ffffff">
</g>
<g
   id="g56"
   style="fill:#ffffff">
</g>
<g
   id="g58"
   style="fill:#ffffff">
</g>
<g
   id="g60"
   style="fill:#ffffff">
</g>
<g
   id="g62"
   style="fill:#ffffff">
</g>
<g
   id="g64"
   style="fill:#ffffff">
</g>
<g
   id="g66"
   style="fill:#ffffff">
</g>
</svg>