<?xml version="1.0" encoding="UTF-8" standalone="no"?>
<!-- Generator: Adobe Illustrator 19.0.0, SVG Export Plug-In . SVG Version: 6.00 Build 0)  -->

<svg
   xmlns:dc="http://purl.org/dc/elements/1.1/"
   xmlns:cc="http://creativecommons.org/ns#"
   xmlns:rdf="http://www.w3.org/1999/02/22-rdf-syntax-ns#"
   xmlns:svg="http://www.w3.org/2000/svg"
   xmlns="http://www.w3.org/2000/svg"
   xmlns:sodipodi="http://sodipodi.sourceforge.net/DTD/sodipodi-0.dtd"
   xmlns:inkscape="http://www.inkscape.org/namespaces/inkscape"
   version="1.1"
   id="Capa_1"
   x="0px"
   y="0px"
   viewBox="0 0 512.001 512.001"
   style="enable-background:new 0 0 512.001 512.001;"
   xml:space="preserve"
   sodipodi:docname="edi_whitet.svg"
   inkscape:version="0.92.4 (5da689c313, 2019-01-14)"><metadata
   id="metadata79"><rdf:RDF><cc:Work
       rdf:about=""><dc:format>image/svg+xml</dc:format><dc:type
         rdf:resource="http://purl.org/dc/dcmitype/StillImage" /><dc:title></dc:title></cc:Work></rdf:RDF></metadata><defs
   id="defs77" /><sodipodi:namedview
   pagecolor="#ffffff"
   bordercolor="#666666"
   borderopacity="1"
   objecttolerance="10"
   gridtolerance="10"
   guidetolerance="10"
   inkscape:pageopacity="0"
   inkscape:pageshadow="2"
   inkscape:window-width="679"
   inkscape:window-height="480"
   id="namedview75"
   showgrid="false"
   inkscape:zoom="0.46093662"
   inkscape:cx="-14.101722"
   inkscape:cy="256.00049"
   inkscape:window-x="0"
   inkscape:window-y="0"
   inkscape:window-maximized="0"
   inkscape:current-layer="Capa_1" />
<g
   id="g6"
   style="fill:#ffffff">
	<g
   id="g4"
   style="fill:#ffffff">
		<path
   d="M447.99,69.671c5.522,0,10-4.477,10-10V42.005c0-23.159-18.841-41.999-41.999-41.999H95.998    c-23.159,0-41.999,18.841-41.999,41.999v70.252h-20c-7.72,0-14-6.28-14-14s6.28-14,14-14c5.522,0,10-4.477,10-10s-4.478-10-10-10    C15.252,64.258,0,79.51,0,98.258c0,18.748,15.252,33.999,33.999,33.999h20v137.87h-20c-7.72,0-14-6.28-14-14s6.28-14,14-14    c5.522,0,10-4.477,10-10c0-5.523-4.478-10-10-10C15.252,222.128,0,237.38,0,256.127c0,18.748,15.252,33.999,33.999,33.999h20    v137.87h-20c-7.72,0-14-6.28-14-14c0-7.72,6.28-14,14-14c5.522,0,10-4.477,10-10s-4.478-10-10-10    C15.252,379.998,0,395.249,0,413.997c0,18.748,15.252,33.999,33.999,33.999h20v22c0,23.159,18.841,41.999,41.999,41.999h319.993    c23.159,0,41.999-18.841,41.999-41.999V327.703c0-5.523-4.478-10-10-10c-5.522,0-10,4.477-10,10v142.292c0,12.131-9.869,22-22,22    H95.998c-12.131,0-22-9.869-22-22v-22h24.167c18.748,0,33.999-15.252,33.999-33.999c0-18.748-15.252-33.999-33.999-33.999h-1    c-5.522,0-10,4.477-10,10s4.478,10,10,10h1c7.72,0,14,6.28,14,14c0,7.72-6.28,14-14,14H73.998V290.127h24.167    c18.748,0,33.999-15.252,33.999-33.999s-15.252-33.999-33.999-33.999h-1c-5.522,0-10,4.477-10,10c0,5.523,4.478,10,10,10h1    c7.72,0,14,6.28,14,14s-6.28,14-14,14H73.998v-137.87h24.167c18.748,0,33.999-15.252,33.999-33.999    c0-18.748-15.252-33.999-33.999-33.999h-1c-5.522,0-10,4.477-10,10s4.478,10,10,10h1c7.72,0,14,6.28,14,14s-6.28,14-14,14H73.998    V42.005c0-12.131,9.869-22,22-22h319.993c12.131,0,22,9.869,22,22v17.667C437.991,65.194,442.469,69.671,447.99,69.671z"
   id="path2"
   style="fill:#ffffff" />
	</g>
</g>
<g
   id="g12"
   style="fill:#ffffff">
	<g
   id="g10"
   style="fill:#ffffff">
		<path
   d="M244.064,379.177c-1.859-1.86-4.439-2.93-7.069-2.93c-2.641,0.001-5.21,1.071-7.07,2.93c-1.86,1.87-2.93,4.44-2.93,7.07    c0,2.64,1.069,5.21,2.93,7.08c1.86,1.86,4.44,2.92,7.07,2.92s5.21-1.06,7.069-2.92c1.86-1.87,2.931-4.44,2.931-7.08    C246.995,383.617,245.925,381.047,244.064,379.177z"
   id="path8"
   style="fill:#ffffff" />
	</g>
</g>
<g
   id="g18"
   style="fill:#ffffff">
	<g
   id="g16"
   style="fill:#ffffff">
		<path
   d="M198.996,376.252H159.2c-5.522,0-10,4.477-10,10s4.478,10,10,10h39.796c5.522,0,10-4.477,10-10    S204.518,376.252,198.996,376.252z"
   id="path14"
   style="fill:#ffffff" />
	</g>
</g>
<g
   id="g24"
   style="fill:#ffffff">
	<g
   id="g22"
   style="fill:#ffffff">
		<path
   d="M255.995,288.254H159.2c-5.522,0-10,4.477-10,10s4.478,10,10,10h96.795c5.522,0,10-4.477,10-10    S261.516,288.254,255.995,288.254z"
   id="path20"
   style="fill:#ffffff" />
	</g>
</g>
<g
   id="g30"
   style="fill:#ffffff">
	<g
   id="g28"
   style="fill:#ffffff">
		<path
   d="M294.02,200.256H159.2c-5.522,0-10,4.477-10,10s4.478,10,10,10h134.82c5.523,0,10-4.477,10-10    S299.542,200.256,294.02,200.256z"
   id="path26"
   style="fill:#ffffff" />
	</g>
</g>
<g
   id="g36"
   style="fill:#ffffff">
	<g
   id="g34"
   style="fill:#ffffff">
		<path
   d="M329.044,112.257H159.2c-5.522,0-10,4.477-10,10s4.478,10,10,10h169.844c5.522,0,10-4.477,10-10    S334.566,112.257,329.044,112.257z"
   id="path32"
   style="fill:#ffffff" />
	</g>
</g>
<g
   id="g42"
   style="fill:#ffffff">
	<g
   id="g40"
   style="fill:#ffffff">
		<path
   d="M510.789,144.75c-2.427-9.059-8.236-16.63-16.358-21.319l-37.691-21.763c-16.767-9.679-38.281-3.913-47.961,12.852    L273.256,349.254c-0.878,1.52-1.34,3.245-1.34,5v93.742c0,3.573,1.906,6.874,5,8.66c1.547,0.893,3.273,1.34,5,1.34    c1.727,0,3.453-0.447,5-1.34l81.183-46.871c1.521-0.877,2.782-2.14,3.66-3.66l135.522-234.733    C511.97,163.27,513.217,153.809,510.789,144.75z M291.916,430.677v-21.966l19.097,10.94L291.916,430.677z M331.051,408.081    l-39.135-22.42v-14.088l51.184,29.55L331.051,408.081z M359.438,387.466l-63.863-36.871L400.77,168.391l63.863,36.871    L359.438,387.466z M489.961,161.391l-15.329,26.55l-63.863-36.871l15.329-26.549c4.166-7.215,13.426-9.695,20.642-5.531    l37.691,21.762c3.495,2.018,5.995,5.276,7.04,9.175C492.516,153.826,491.979,157.896,489.961,161.391z"
   id="path38"
   style="fill:#ffffff" />
	</g>
</g>
<g
   id="g44"
   style="fill:#ffffff">
</g>
<g
   id="g46"
   style="fill:#ffffff">
</g>
<g
   id="g48"
   style="fill:#ffffff">
</g>
<g
   id="g50"
   style="fill:#ffffff">
</g>
<g
   id="g52"
   style="fill:#ffffff">
</g>
<g
   id="g54"
   style="fill:#ffffff">
</g>
<g
   id="g56"
   style="fill:#ffffff">
</g>
<g
   id="g58"
   style="fill:#ffffff">
</g>
<g
   id="g60"
   style="fill:#ffffff">
</g>
<g
   id="g62"
   style="fill:#ffffff">
</g>
<g
   id="g64"
   style="fill:#ffffff">
</g>
<g
   id="g66"
   style="fill:#ffffff">
</g>
<g
   id="g68"
   style="fill:#ffffff">
</g>
<g
   id="g70"
   style="fill:#ffffff">
</g>
<g
   id="g72"
   style="fill:#ffffff">
</g>
</svg>