<?xml version="1.0" encoding="UTF-8" standalone="no"?>
<!-- Generator: Adobe Illustrator 19.0.0, SVG Export Plug-In . SVG Version: 6.00 Build 0)  -->

<svg
   xmlns:dc="http://purl.org/dc/elements/1.1/"
   xmlns:cc="http://creativecommons.org/ns#"
   xmlns:rdf="http://www.w3.org/1999/02/22-rdf-syntax-ns#"
   xmlns:svg="http://www.w3.org/2000/svg"
   xmlns="http://www.w3.org/2000/svg"
   xmlns:sodipodi="http://sodipodi.sourceforge.net/DTD/sodipodi-0.dtd"
   xmlns:inkscape="http://www.inkscape.org/namespaces/inkscape"
   version="1.1"
   id="Capa_1"
   x="0px"
   y="0px"
   viewBox="0 0 512 512"
   style="enable-background:new 0 0 512 512;"
   xml:space="preserve"
   sodipodi:docname="051-edit.svg"
   inkscape:version="0.92.3 (2405546, 2018-03-11)"><metadata
   id="metadata47"><rdf:RDF><cc:Work
       rdf:about=""><dc:format>image/svg+xml</dc:format><dc:type
         rdf:resource="http://purl.org/dc/dcmitype/StillImage" /><dc:title></dc:title></cc:Work></rdf:RDF></metadata><defs
   id="defs45" /><sodipodi:namedview
   pagecolor="#ffffff"
   bordercolor="#666666"
   borderopacity="1"
   objecttolerance="10"
   gridtolerance="10"
   guidetolerance="10"
   inkscape:pageopacity="0"
   inkscape:pageshadow="2"
   inkscape:window-width="1366"
   inkscape:window-height="715"
   id="namedview43"
   showgrid="false"
   inkscape:zoom="0.4609375"
   inkscape:cx="60.912647"
   inkscape:cy="256"
   inkscape:window-x="-8"
   inkscape:window-y="-8"
   inkscape:window-maximized="1"
   inkscape:current-layer="Capa_1" />


<path
   d="M162.526,478.172c-43.168-18.185-79.909-48.375-106.25-87.305C29.292,350.987,15.029,304.351,15.029,256  c0-64.365,25.065-124.879,70.579-170.392C131.121,40.095,191.635,15.03,256,15.03c28.677,0,56.731,4.984,83.383,14.814  c3.894,1.437,8.215-0.556,9.651-4.45s-0.556-8.215-4.45-9.651C316.262,5.297,286.458,0,256,0C187.62,0,123.333,26.629,74.98,74.98  C26.629,123.333,0,187.62,0,256c0,51.364,15.155,100.913,43.828,143.288c27.977,41.349,67.005,73.417,112.863,92.735  c0.953,0.401,1.941,0.591,2.914,0.591c2.932,0,5.719-1.727,6.929-4.599C168.145,484.191,166.351,479.784,162.526,478.172z"
   id="path6" />
<path
   d="M473.068,120.227c-24.773-39.525-59.819-71.56-101.351-92.64c-3.701-1.878-8.224-0.402-10.102,3.3  c-1.878,3.701-0.401,8.224,3.3,10.102c39.099,19.846,72.094,50.006,95.418,87.22c23.968,38.241,36.637,82.431,36.637,127.792  c0,64.365-25.065,124.878-70.579,170.392C380.879,471.905,320.365,496.97,256,496.97c-21.795,0-43.395-2.908-64.199-8.644  c-3.998-1.101-8.138,1.247-9.242,5.248c-1.103,4.001,1.247,8.138,5.248,9.242C209.912,508.91,232.856,512,256,512  c68.38,0,132.667-26.628,181.02-74.98C485.371,388.667,512,324.38,512,256C512,207.813,498.538,160.863,473.068,120.227z"
   id="path8" />

<g
   id="g12">
</g>
<g
   id="g14">
</g>
<g
   id="g16">
</g>
<g
   id="g18">
</g>
<g
   id="g20">
</g>
<g
   id="g22">
</g>
<g
   id="g24">
</g>
<g
   id="g26">
</g>
<g
   id="g28">
</g>
<g
   id="g30">
</g>
<g
   id="g32">
</g>
<g
   id="g34">
</g>
<g
   id="g36">
</g>
<g
   id="g38">
</g>
<g
   id="g40">
</g>
<path
   inkscape:connector-curvature="0"
   d="m 374.83068,123.26607 c -2.427,-9.059 -8.236,-16.63 -16.358,-21.319 l -37.691,-21.762988 c -16.767,-9.679 -38.281,-3.913 -47.961,12.85199 l -135.523,234.733998 c -0.878,1.52 -1.34,3.245 -1.34,5 v 93.742 c 0,3.573 1.906,6.874 5,8.66 1.547,0.893 3.273,1.34 5,1.34 1.727,0 3.453,-0.447 5,-1.34 l 81.183,-46.871 c 1.521,-0.877 2.782,-2.14 3.66,-3.66 l 135.522,-234.733 c 4.689,-8.122 5.936,-17.583 3.508,-26.642 z m -218.873,285.927 v -21.966 l 19.097,10.94 z m 39.135,-22.596 -39.135,-22.42 v -14.088 l 51.184,29.55 z m 28.387,-20.615 -63.863,-36.871 105.195,-182.204 63.863,36.871 z m 130.523,-226.075 -15.329,26.55 -63.863,-36.871 15.329,-26.549 c 4.166,-7.214998 13.426,-9.694998 20.642,-5.530998 l 37.691,21.761998 c 3.495,2.018 5.995,5.276 7.04,9.175 1.045,3.899 0.508,7.969 -1.51,11.464 z"
   id="path38"
   style="fill:#000000" /></svg>