<?xml version="1.0" encoding="UTF-8" standalone="no"?>
<!-- Generator: Adobe Illustrator 19.0.0, SVG Export Plug-In . SVG Version: 6.00 Build 0)  -->

<svg
   xmlns:dc="http://purl.org/dc/elements/1.1/"
   xmlns:cc="http://creativecommons.org/ns#"
   xmlns:rdf="http://www.w3.org/1999/02/22-rdf-syntax-ns#"
   xmlns:svg="http://www.w3.org/2000/svg"
   xmlns="http://www.w3.org/2000/svg"
   xmlns:sodipodi="http://sodipodi.sourceforge.net/DTD/sodipodi-0.dtd"
   xmlns:inkscape="http://www.inkscape.org/namespaces/inkscape"
   version="1.1"
   id="Capa_1"
   x="0px"
   y="0px"
   viewBox="0 0 512 512"
   style="enable-background:new 0 0 512 512;"
   xml:space="preserve"
   sodipodi:docname="home_white.svg"
   inkscape:version="0.92.3 (2405546, 2018-03-11)"><metadata
   id="metadata55"><rdf:RDF><cc:Work
       rdf:about=""><dc:format>image/svg+xml</dc:format><dc:type
         rdf:resource="http://purl.org/dc/dcmitype/StillImage" /></cc:Work></rdf:RDF></metadata><defs
   id="defs53" /><sodipodi:namedview
   pagecolor="#ffffff"
   bordercolor="#666666"
   borderopacity="1"
   objecttolerance="10"
   gridtolerance="10"
   guidetolerance="10"
   inkscape:pageopacity="0"
   inkscape:pageshadow="2"
   inkscape:window-width="1366"
   inkscape:window-height="715"
   id="namedview51"
   showgrid="false"
   inkscape:zoom="0.4609375"
   inkscape:cx="-14.101695"
   inkscape:cy="256"
   inkscape:window-x="-8"
   inkscape:window-y="-8"
   inkscape:window-maximized="1"
   inkscape:current-layer="Capa_1" />
<g
   id="g6"
   style="fill:#f9f9f9">
	<g
   id="g4"
   style="fill:#f9f9f9">
		<path
   d="M453.509,237.056c-4.277,0-7.744,3.467-7.744,7.744v215.921c0,19.555-15.91,35.464-35.465,35.464h-87.063v-13.953    c0-4.277-3.467-7.744-7.744-7.744s-7.744,3.467-7.744,7.744v13.953h-103.5V330.431h103.5v123.267c0,4.277,3.467,7.744,7.744,7.744    s7.744-3.467,7.744-7.744V322.687c0-4.277-3.467-7.744-7.744-7.744H196.506c-4.277,0-7.744,3.467-7.744,7.744v173.498H101.7    c-19.556,0-35.465-15.909-35.465-35.464V242.706c0-4.277-3.467-7.744-7.744-7.744c-4.277,0-7.744,3.467-7.744,7.744v218.015    c0,28.094,22.857,50.952,50.953,50.952h94.807h118.988h94.807c28.095,0,50.952-22.857,50.952-50.952V244.8    C461.253,240.523,457.785,237.056,453.509,237.056z"
   id="path2"
   style="fill:#f9f9f9" />
	</g>
</g>
<g
   id="g12"
   style="fill:#f9f9f9">
	<g
   id="g10"
   style="fill:#f9f9f9">
		<path
   d="M509.732,252.519L259.808,2.596c-1.452-1.452-3.422-2.268-5.476-2.268c-2.054,0-4.024,0.816-5.476,2.268L2.268,249.186    c-3.024,3.024-3.024,7.927,0,10.952c3.024,3.023,7.927,3.023,10.951,0L254.333,19.023l244.448,244.448    c1.512,1.511,3.494,2.268,5.476,2.268s3.964-0.756,5.476-2.268C512.756,260.446,512.756,255.543,509.732,252.519z"
   id="path8"
   style="fill:#f9f9f9" />
	</g>
</g>
<g
   id="g18"
   style="fill:#f9f9f9">
	<g
   id="g16"
   style="fill:#f9f9f9">
		<path
   d="M256,114.846c-23.855,0-43.263,19.408-43.263,43.263c0,23.855,19.408,43.262,43.263,43.262s43.262-19.407,43.262-43.262    C299.262,134.254,279.855,114.846,256,114.846z M256,185.884c-15.315,0-27.775-12.46-27.775-27.775s12.46-27.775,27.775-27.775    s27.775,12.46,27.775,27.775C283.775,173.424,271.315,185.884,256,185.884z"
   id="path14"
   style="fill:#f9f9f9" />
	</g>
</g>
<g
   id="g20"
   style="fill:#f9f9f9">
</g>
<g
   id="g22"
   style="fill:#f9f9f9">
</g>
<g
   id="g24"
   style="fill:#f9f9f9">
</g>
<g
   id="g26"
   style="fill:#f9f9f9">
</g>
<g
   id="g28"
   style="fill:#f9f9f9">
</g>
<g
   id="g30"
   style="fill:#f9f9f9">
</g>
<g
   id="g32"
   style="fill:#f9f9f9">
</g>
<g
   id="g34"
   style="fill:#f9f9f9">
</g>
<g
   id="g36"
   style="fill:#f9f9f9">
</g>
<g
   id="g38"
   style="fill:#f9f9f9">
</g>
<g
   id="g40"
   style="fill:#f9f9f9">
</g>
<g
   id="g42"
   style="fill:#f9f9f9">
</g>
<g
   id="g44"
   style="fill:#f9f9f9">
</g>
<g
   id="g46"
   style="fill:#f9f9f9">
</g>
<g
   id="g48"
   style="fill:#f9f9f9">
</g>
</svg>