<?xml version="1.0" encoding="UTF-8" standalone="no"?>
<!-- Generator: Adobe Illustrator 19.0.0, SVG Export Plug-In . SVG Version: 6.00 Build 0)  -->

<svg
   xmlns:dc="http://purl.org/dc/elements/1.1/"
   xmlns:cc="http://creativecommons.org/ns#"
   xmlns:rdf="http://www.w3.org/1999/02/22-rdf-syntax-ns#"
   xmlns:svg="http://www.w3.org/2000/svg"
   xmlns="http://www.w3.org/2000/svg"
   xmlns:sodipodi="http://sodipodi.sourceforge.net/DTD/sodipodi-0.dtd"
   xmlns:inkscape="http://www.inkscape.org/namespaces/inkscape"
   version="1.1"
   id="Capa_1"
   x="0px"
   y="0px"
   viewBox="0 0 512 512"
   style="enable-background:new 0 0 512 512;"
   xml:space="preserve"
   sodipodi:docname="logout_white.svg"
   inkscape:version="0.92.3 (2405546, 2018-03-11)"><metadata
   id="metadata49"><rdf:RDF><cc:Work
       rdf:about=""><dc:format>image/svg+xml</dc:format><dc:type
         rdf:resource="http://purl.org/dc/dcmitype/StillImage" /></cc:Work></rdf:RDF></metadata><defs
   id="defs47" /><sodipodi:namedview
   pagecolor="#ffffff"
   bordercolor="#666666"
   borderopacity="1"
   objecttolerance="10"
   gridtolerance="10"
   guidetolerance="10"
   inkscape:pageopacity="0"
   inkscape:pageshadow="2"
   inkscape:window-width="1366"
   inkscape:window-height="715"
   id="namedview45"
   showgrid="false"
   inkscape:zoom="0.65186406"
   inkscape:cx="-56.037488"
   inkscape:cy="163.51846"
   inkscape:window-x="-8"
   inkscape:window-y="-8"
   inkscape:window-maximized="1"
   inkscape:current-layer="Capa_1" />
<g
   id="g6"
   style="fill:#f9f9f9">
	<g
   id="g4"
   style="fill:#f9f9f9">
		<path
   d="M 16.318359 294.51562 L 1.8847656 311.39453 C 1.8707656 311.41053 1.8597031 311.42736 1.8457031 311.44336 C 1.7387031 311.57036 1.6419688 311.70489 1.5429688 311.83789 C 1.4869687 311.91389 1.4250938 311.98841 1.3710938 312.06641 C 1.2820938 312.19741 1.2011406 312.3347 1.1191406 312.4707 C 1.0671406 312.5567 1.0128438 312.64052 0.96484375 312.72852 C 0.89584375 312.85352 0.83739063 312.98428 0.77539062 313.11328 C 0.72639062 313.21628 0.67095313 313.31687 0.62695312 313.42188 C 0.57795312 313.53787 0.53814063 313.65834 0.49414062 313.77734 C 0.44914063 313.89834 0.40032813 314.01863 0.36132812 314.14062 C 0.32832812 314.24763 0.30439062 314.3578 0.27539062 314.4668 C 0.23839062 314.6058 0.19796875 314.74377 0.16796875 314.88477 C 0.14696875 314.98377 0.1341875 315.0875 0.1171875 315.1875 C 0.0911875 315.3415 0.063875 315.49539 0.046875 315.65039 C 0.036875 315.74839 0.03334375 315.84731 0.02734375 315.94531 C 0.01634375 316.10731 0.00590625 316.26869 0.00390625 316.42969 C 0.00390625 316.45169 0 316.47409 0 316.49609 L 0 466.33398 C 0 488.20998 17.798781 506.00977 39.675781 506.00977 L 472.32422 506.00977 C 494.20122 506.00977 511.99805 488.20998 511.99805 466.33398 L 511.99805 316.49609 C 512.00005 316.47409 511.99805 316.45364 511.99805 316.43164 C 511.99705 316.26964 511.98466 316.10827 511.97266 315.94727 C 511.96566 315.84827 511.96312 315.74739 511.95312 315.65039 C 511.93613 315.49539 511.90881 315.3415 511.88281 315.1875 C 511.86581 315.0865 511.85498 314.98572 511.83398 314.88672 C 511.80398 314.74472 511.76261 314.60389 511.72461 314.46289 C 511.69561 314.35589 511.67362 314.24758 511.64062 314.14258 C 511.60163 314.01758 511.55086 313.89644 511.50586 313.77344 C 511.46286 313.65644 511.42205 313.53587 511.37305 313.42188 C 511.32905 313.31788 511.27556 313.21628 511.22656 313.11328 C 511.16456 312.98428 511.10611 312.85352 511.03711 312.72852 C 510.98911 312.64052 510.93186 312.5567 510.88086 312.4707 C 510.79886 312.3347 510.71986 312.19741 510.63086 312.06641 C 510.57786 311.98841 510.51598 311.91584 510.45898 311.83984 C 510.35998 311.70684 510.2613 311.57231 510.1543 311.44531 C 510.1403 311.42931 510.12923 311.41053 510.11523 311.39453 L 495.22656 293.98438 L 495.22656 324.34961 L 496.29492 324.34961 L 496.29492 466.33594 C 496.29492 479.55294 485.54122 490.30469 472.32422 490.30469 L 39.675781 490.30469 C 26.458781 490.30469 15.705078 479.55194 15.705078 466.33594 L 15.705078 324.34961 L 16.318359 324.34961 L 16.318359 294.51562 z "
   id="path873"
   style="fill:#f9f9f9" />
	</g>
</g>
<g
   id="g12"
   style="fill:#f9f9f9">
	<g
   id="g10"
   style="fill:#f9f9f9">
		<path
   d="M326.414,89.616l-55.743-75.267c-3.943-5.324-9.97-8.378-16.63-8.358c-6.625,0.012-12.675,3.081-16.598,8.419    L182.12,89.676c-4.636,6.308-5.32,14.566-1.785,21.551c3.534,6.986,10.592,11.325,18.421,11.325h21.088v175.116    c0,19.364,15.754,35.119,35.119,35.119c19.365,0,35.119-15.755,35.119-35.119V122.552h19.74c7.845,0,14.91-4.352,18.439-11.358    C331.791,104.188,331.083,95.92,326.414,89.616z M314.233,104.129c-0.412,0.818-1.666,2.719-4.413,2.719h-27.593    c-4.337,0-7.853,3.515-7.853,7.853v182.968c0,10.704-8.709,19.413-19.413,19.413s-19.413-8.709-19.413-19.413v-182.97    c0-4.337-3.516-7.853-7.853-7.853h-28.941c-2.741,0-3.996-1.896-4.409-2.711c-0.411-0.814-1.195-2.948,0.428-5.156l55.323-75.267    c1.285-1.748,3.04-2.013,3.972-2.014c0.003,0,0.006,0,0.009,0c0.934,0,2.683,0.262,3.971,2l55.743,75.267    C315.426,101.173,314.645,103.312,314.233,104.129z"
   id="path8"
   style="fill:#f9f9f9" />
	</g>
</g>
<g
   id="g14"
   style="fill:#f9f9f9">
</g>
<g
   id="g16"
   style="fill:#f9f9f9">
</g>
<g
   id="g18"
   style="fill:#f9f9f9">
</g>
<g
   id="g20"
   style="fill:#f9f9f9">
</g>
<g
   id="g22"
   style="fill:#f9f9f9">
</g>
<g
   id="g24"
   style="fill:#f9f9f9">
</g>
<g
   id="g26"
   style="fill:#f9f9f9">
</g>
<g
   id="g28"
   style="fill:#f9f9f9">
</g>
<g
   id="g30"
   style="fill:#f9f9f9">
</g>
<g
   id="g32"
   style="fill:#f9f9f9">
</g>
<g
   id="g34"
   style="fill:#f9f9f9">
</g>
<g
   id="g36"
   style="fill:#f9f9f9">
</g>
<g
   id="g38"
   style="fill:#f9f9f9">
</g>
<g
   id="g40"
   style="fill:#f9f9f9">
</g>
<g
   id="g42"
   style="fill:#f9f9f9">
</g>
</svg>