<?xml version="1.0" encoding="iso-8859-1"?>
<!-- Generator: Adobe Illustrator 19.0.0, SVG Export Plug-In . SVG Version: 6.00 Build 0)  -->
<svg version="1.1" id="Capa_1" xmlns="http://www.w3.org/2000/svg" xmlns:xlink="http://www.w3.org/1999/xlink" x="0px" y="0px"
	 viewBox="0 0 512 512" style="enable-background:new 0 0 512 512;" xml:space="preserve">
<path style="fill:#D2E4FF;" d="M505,469.79c0,19.446-15.764,35.21-35.21,35.21H43.21C23.764,505,8,489.236,8,469.79V43.21
	C8,23.764,23.764,8,43.21,8h426.58C489.236,8,505,23.764,505,43.21V469.79z"/>
<path style="fill:#B6D7FF;" d="M469.125,8H448v203.606C448,344.571,339.843,452,206.878,452H8v17.125
	C8,488.571,23.429,504,42.875,504h426.251C488.571,504,504,488.571,504,469.125V42.875C504,23.429,488.571,8,469.125,8z"/>
<circle style="fill:#175BE7;" cx="255.66" cy="183.64" r="57.735"/>
<path style="fill:#6CA5FF;" d="M372.705,385H133.394c-4.271,0-7.394-3.307-7.394-7.579V340.19c0-38.088,30.536-69.19,68.624-69.19
	h116.851C349.563,271,380,302.102,380,340.19v37.231C380,381.693,376.977,385,372.705,385z"/>
<path d="M469.125,0H144.096c-4.233,0-7.665,3.267-7.665,7.5s3.432,7.5,7.665,7.5h325.029C484.314,15,497,27.686,497,42.875v426.25
	C497,484.314,484.314,497,469.125,497H42.875C27.686,497,15,484.314,15,469.125V42.875C15,27.686,27.686,15,42.875,15h61.535
	c4.233,0,7.665-3.267,7.665-7.5S108.643,0,104.41,0H42.875C19.234,0,0,19.234,0,42.875v426.25C0,492.766,19.234,512,42.875,512
	h426.25C492.766,512,512,492.766,512,469.125V42.875C512,19.234,492.766,0,469.125,0z"/>
<path d="M255.657,249.041c36.062,0,65.4-29.338,65.4-65.4s-29.338-65.4-65.4-65.4c-36.061,0-65.4,29.338-65.4,65.4
	S219.595,249.041,255.657,249.041z M255.657,133.571c27.609,0,50.071,22.462,50.071,50.07s-22.462,50.07-50.071,50.07
	s-50.07-22.462-50.07-50.07S228.048,133.571,255.657,133.571z"/>
<path d="M133.394,393h65.377c4.233,0,7.665-3.522,7.665-7.755s-3.2-7.71-7.433-7.71L188,377.479v-35.9c0-4.233-3.767-7.665-8-7.665
	s-8,3.432-8,7.665v35.884l-39-0.041V340.19c0-33.801,27.823-61.19,61.624-61.19h116.851c33.8,0,61.299,27.199,61.299,61l-0.069,37
	H333v-35.422c0-4.233-3.267-7.665-7.5-7.665s-7.5,3.432-7.5,7.665V377h-82.439c-4.233,0-7.665,3.767-7.665,8s3.432,8,7.665,8
	h137.144c8.491,0,15.295-7.088,15.295-15.579V340.19c0-42.254-34.272-76.19-76.525-76.19H194.624
	C152.371,264,118,297.937,118,340.19v37.231C118,385.912,124.903,393,133.394,393z"/>
<g>
</g>
<g>
</g>
<g>
</g>
<g>
</g>
<g>
</g>
<g>
</g>
<g>
</g>
<g>
</g>
<g>
</g>
<g>
</g>
<g>
</g>
<g>
</g>
<g>
</g>
<g>
</g>
<g>
</g>
</svg>
