<?xml version="1.0" encoding="UTF-8" standalone="no"?>
<!-- Generator: Adobe Illustrator 19.0.0, SVG Export Plug-In . SVG Version: 6.00 Build 0)  -->

<svg
   xmlns:dc="http://purl.org/dc/elements/1.1/"
   xmlns:cc="http://creativecommons.org/ns#"
   xmlns:rdf="http://www.w3.org/1999/02/22-rdf-syntax-ns#"
   xmlns:svg="http://www.w3.org/2000/svg"
   xmlns="http://www.w3.org/2000/svg"
   xmlns:sodipodi="http://sodipodi.sourceforge.net/DTD/sodipodi-0.dtd"
   xmlns:inkscape="http://www.inkscape.org/namespaces/inkscape"
   version="1.1"
   id="Capa_1"
   x="0px"
   y="0px"
   viewBox="0 0 512 512"
   style="enable-background:new 0 0 512 512;"
   xml:space="preserve"
   sodipodi:docname="me_white.svg"
   inkscape:version="0.92.3 (2405546, 2018-03-11)"><metadata
   id="metadata55"><rdf:RDF><cc:Work
       rdf:about=""><dc:format>image/svg+xml</dc:format><dc:type
         rdf:resource="http://purl.org/dc/dcmitype/StillImage" /></cc:Work></rdf:RDF></metadata><defs
   id="defs53" /><sodipodi:namedview
   pagecolor="#ffffff"
   bordercolor="#666666"
   borderopacity="1"
   objecttolerance="10"
   gridtolerance="10"
   guidetolerance="10"
   inkscape:pageopacity="0"
   inkscape:pageshadow="2"
   inkscape:window-width="785"
   inkscape:window-height="480"
   id="namedview51"
   showgrid="false"
   inkscape:zoom="0.4609375"
   inkscape:cx="-14.101695"
   inkscape:cy="256"
   inkscape:window-x="0"
   inkscape:window-y="0"
   inkscape:window-maximized="0"
   inkscape:current-layer="Capa_1" />
<g
   id="g6"
   style="fill:#f9f9f9">
	<g
   id="g4"
   style="fill:#f9f9f9">
		<path
   d="M469.125,0H144.096c-4.233,0-7.665,3.432-7.665,7.665c0,4.233,3.432,7.665,7.665,7.665h325.029    c15.189,0,27.545,12.357,27.545,27.545v426.25c0,15.189-12.357,27.545-27.545,27.545H42.875    c-15.189,0-27.545-12.357-27.545-27.545V42.875c0-15.189,12.357-27.545,27.545-27.545h61.535c4.233,0,7.665-3.432,7.665-7.665    c0-4.233-3.432-7.665-7.665-7.665H42.875C19.234,0,0,19.234,0,42.875v426.25C0,492.766,19.234,512,42.875,512h426.25    C492.766,512,512,492.766,512,469.125V42.875C512,19.234,492.766,0,469.125,0z"
   id="path2"
   style="fill:#f9f9f9" />
	</g>
</g>
<g
   id="g12"
   style="fill:#f9f9f9">
	<g
   id="g10"
   style="fill:#f9f9f9">
		<path
   d="M255.657,118.241c-36.061,0-65.4,29.338-65.4,65.4s29.338,65.4,65.4,65.4c36.062,0,65.4-29.338,65.4-65.4    S291.719,118.241,255.657,118.241z M255.657,233.711c-27.609,0-50.07-22.462-50.07-50.07c0-27.608,22.461-50.07,50.07-50.07    c27.609,0,50.071,22.462,50.071,50.07S283.266,233.711,255.657,233.711z"
   id="path8"
   style="fill:#f9f9f9" />
	</g>
</g>
<g
   id="g18"
   style="fill:#f9f9f9">
	<g
   id="g16"
   style="fill:#f9f9f9">
		<path
   d="M311.474,263.561h-116.85c-42.253,0-76.629,34.376-76.629,76.629v37.231c0,8.491,6.908,15.399,15.399,15.399h65.377    c4.233,0,7.665-3.432,7.665-7.665c0-4.233-3.432-7.665-7.665-7.665l-11.234-0.012v-35.9c0-4.233-3.432-7.665-7.665-7.665    s-7.665,3.432-7.665,7.665v35.884l-38.883-0.041V340.19c0-33.801,27.499-61.3,61.3-61.3h116.851c33.8,0,61.299,27.499,61.299,61.3    l-0.069,37.3h-39.213v-35.912c0-4.233-3.432-7.665-7.665-7.665c-4.233,0-7.665,3.432-7.665,7.665v35.912H235.56    c-4.233,0-7.665,3.432-7.665,7.665c0,4.233,3.432,7.665,7.665,7.665h137.144c8.491,0,15.399-6.908,15.399-15.399V340.19    C388.103,297.936,353.727,263.561,311.474,263.561z"
   id="path14"
   style="fill:#f9f9f9" />
	</g>
</g>
<g
   id="g20"
   style="fill:#f9f9f9">
</g>
<g
   id="g22"
   style="fill:#f9f9f9">
</g>
<g
   id="g24"
   style="fill:#f9f9f9">
</g>
<g
   id="g26"
   style="fill:#f9f9f9">
</g>
<g
   id="g28"
   style="fill:#f9f9f9">
</g>
<g
   id="g30"
   style="fill:#f9f9f9">
</g>
<g
   id="g32"
   style="fill:#f9f9f9">
</g>
<g
   id="g34"
   style="fill:#f9f9f9">
</g>
<g
   id="g36"
   style="fill:#f9f9f9">
</g>
<g
   id="g38"
   style="fill:#f9f9f9">
</g>
<g
   id="g40"
   style="fill:#f9f9f9">
</g>
<g
   id="g42"
   style="fill:#f9f9f9">
</g>
<g
   id="g44"
   style="fill:#f9f9f9">
</g>
<g
   id="g46"
   style="fill:#f9f9f9">
</g>
<g
   id="g48"
   style="fill:#f9f9f9">
</g>
</svg>