<?xml version="1.0" encoding="UTF-8" standalone="no"?>
<!-- Generator: Adobe Illustrator 19.0.0, SVG Export Plug-In . SVG Version: 6.00 Build 0)  -->

<svg
   xmlns:dc="http://purl.org/dc/elements/1.1/"
   xmlns:cc="http://creativecommons.org/ns#"
   xmlns:rdf="http://www.w3.org/1999/02/22-rdf-syntax-ns#"
   xmlns:svg="http://www.w3.org/2000/svg"
   xmlns="http://www.w3.org/2000/svg"
   xmlns:sodipodi="http://sodipodi.sourceforge.net/DTD/sodipodi-0.dtd"
   xmlns:inkscape="http://www.inkscape.org/namespaces/inkscape"
   version="1.1"
   id="Capa_1"
   x="0px"
   y="0px"
   viewBox="0 0 512 512"
   style="enable-background:new 0 0 512 512;"
   xml:space="preserve"
   sodipodi:docname="menu_white.svg"
   inkscape:version="0.92.4 (5da689c313, 2019-01-14)"><metadata
   id="metadata103"><rdf:RDF><cc:Work
       rdf:about=""><dc:format>image/svg+xml</dc:format><dc:type
         rdf:resource="http://purl.org/dc/dcmitype/StillImage" /></cc:Work></rdf:RDF></metadata><defs
   id="defs101" /><sodipodi:namedview
   pagecolor="#ffffff"
   bordercolor="#666666"
   borderopacity="1"
   objecttolerance="10"
   gridtolerance="10"
   guidetolerance="10"
   inkscape:pageopacity="0"
   inkscape:pageshadow="2"
   inkscape:window-width="679"
   inkscape:window-height="480"
   id="namedview99"
   showgrid="false"
   inkscape:zoom="0.4609375"
   inkscape:cx="49.071172"
   inkscape:cy="256"
   inkscape:window-x="0"
   inkscape:window-y="0"
   inkscape:window-maximized="0"
   inkscape:current-layer="Capa_1" />
<g
   id="g6"
   style="fill:#ffffff">
	<g
   id="g4"
   style="fill:#ffffff">
		<path
   d="M319.968,0.127H192.032c-5.52,0-9.995,4.476-9.995,9.995v127.937c0,5.519,4.475,9.995,9.995,9.995h127.937    c5.52,0,9.995-4.476,9.995-9.995V10.122C329.963,4.603,325.489,0.127,319.968,0.127z M309.973,128.063H202.027V20.117h107.946    V128.063z"
   id="path2"
   style="fill:#ffffff" />
	</g>
</g>
<g
   id="g12"
   style="fill:#ffffff">
	<g
   id="g10"
   style="fill:#ffffff">
		<path
   d="M502.005,0.127H374.068c-5.52,0-9.995,4.476-9.995,9.995v127.937c0,5.519,4.475,9.995,9.995,9.995h127.937    c5.52,0,9.995-4.476,9.995-9.995V10.122C512,4.603,507.525,0.127,502.005,0.127z M492.01,128.063H384.063V20.117H492.01V128.063z"
   id="path8"
   style="fill:#ffffff" />
	</g>
</g>
<g
   id="g18"
   style="fill:#ffffff">
	<g
   id="g16"
   style="fill:#ffffff">
		<path
   d="M137.932,182.037H9.995c-5.52,0-9.995,4.476-9.995,9.995v127.937c0,5.519,4.475,9.995,9.995,9.995h127.937    c5.52,0,9.995-4.476,9.995-9.995V192.032C147.927,186.512,143.452,182.037,137.932,182.037z M127.937,309.973H19.99V202.027    h107.946V309.973z"
   id="path14"
   style="fill:#ffffff" />
	</g>
</g>
<g
   id="g24"
   style="fill:#ffffff">
	<g
   id="g22"
   style="fill:#ffffff">
		<path
   d="M319.968,182.037H192.032c-5.52,0-9.995,4.476-9.995,9.995v127.937c0,5.519,4.475,9.995,9.995,9.995h127.937    c5.52,0,9.995-4.476,9.995-9.995V192.032C329.963,186.512,325.489,182.037,319.968,182.037z M309.973,309.973H202.027V202.027    h107.946V309.973z"
   id="path20"
   style="fill:#ffffff" />
	</g>
</g>
<g
   id="g30"
   style="fill:#ffffff">
	<g
   id="g28"
   style="fill:#ffffff">
		<path
   d="M502.005,182.037H374.068c-5.52,0-9.995,4.476-9.995,9.995v127.937c0,5.519,4.475,9.995,9.995,9.995h127.937    c5.52,0,9.995-4.476,9.995-9.995V192.032C512,186.512,507.525,182.037,502.005,182.037z M492.01,309.973H384.063V202.027H492.01    V309.973z"
   id="path26"
   style="fill:#ffffff" />
	</g>
</g>
<g
   id="g36"
   style="fill:#ffffff">
	<g
   id="g34"
   style="fill:#ffffff">
		<path
   d="M137.932,363.946H9.995c-5.52,0-9.995,4.476-9.995,9.995v127.937c0,5.519,4.475,9.995,9.995,9.995h127.937    c5.52,0,9.995-4.476,9.995-9.995V373.941C147.927,368.422,143.452,363.946,137.932,363.946z M127.937,491.883H19.99V383.937    h107.946V491.883z"
   id="path32"
   style="fill:#ffffff" />
	</g>
</g>
<g
   id="g42"
   style="fill:#ffffff">
	<g
   id="g40"
   style="fill:#ffffff">
		<path
   d="M319.968,363.946H192.032c-5.52,0-9.995,4.476-9.995,9.995v127.937c0,5.519,4.475,9.995,9.995,9.995h127.937    c5.52,0,9.995-4.476,9.995-9.995V373.941C329.963,368.422,325.489,363.946,319.968,363.946z M309.973,491.883H202.027V383.937    h107.946V491.883z"
   id="path38"
   style="fill:#ffffff" />
	</g>
</g>
<g
   id="g48"
   style="fill:#ffffff">
	<g
   id="g46"
   style="fill:#ffffff">
		<path
   d="M448.517,366.875c-1.859-1.86-4.438-2.929-7.066-2.929c-2.639,0-5.207,1.07-7.067,2.929    c-1.869,1.859-2.929,4.438-2.929,7.066c0,2.629,1.06,5.207,2.929,7.065c1.859,1.86,4.428,2.93,7.067,2.93    c2.629,0,5.207-1.069,7.066-2.93c1.859-1.858,2.929-4.437,2.929-7.065C451.446,371.313,450.377,368.735,448.517,366.875z"
   id="path44"
   style="fill:#ffffff" />
	</g>
</g>
<g
   id="g54"
   style="fill:#ffffff">
	<g
   id="g52"
   style="fill:#ffffff">
		<path
   d="M502.005,363.946h-15.246c-5.52,0-9.995,4.476-9.995,9.995c0,5.519,4.475,9.995,9.995,9.995h5.251v107.946H384.063    V383.937h13.406c5.52,0,9.995-4.476,9.995-9.995c0-5.519-4.475-9.995-9.995-9.995h-23.401c-5.52,0-9.995,4.476-9.995,9.995    v127.937c0,5.519,4.475,9.995,9.995,9.995h127.937c5.52,0,9.995-4.476,9.995-9.995V373.941    C512,368.422,507.525,363.946,502.005,363.946z"
   id="path50"
   style="fill:#ffffff" />
	</g>
</g>
<g
   id="g60"
   style="fill:#ffffff">
	<g
   id="g58"
   style="fill:#ffffff">
		<path
   d="M77.621,130.992c-1.859-1.86-4.438-2.929-7.066-2.929c-2.639,0-5.207,1.069-7.066,2.929    c-1.859,1.859-2.929,4.438-2.929,7.066c0,2.629,1.069,5.207,2.929,7.066c1.859,1.86,4.438,2.93,7.066,2.93s5.207-1.069,7.066-2.93    c1.859-1.858,2.929-4.437,2.929-7.066C80.55,135.43,79.481,132.851,77.621,130.992z"
   id="path56"
   style="fill:#ffffff" />
	</g>
</g>
<g
   id="g66"
   style="fill:#ffffff">
	<g
   id="g64"
   style="fill:#ffffff">
		<path
   d="M137.932,0.127H9.995C4.475,0.127,0,4.603,0,10.122v127.937c0,5.519,4.475,9.995,9.995,9.995h15.246    c5.52,0,9.995-4.476,9.995-9.995c0-5.519-4.475-9.995-9.995-9.995H19.99V20.117h107.946v107.946H114.53    c-5.52,0-9.995,4.476-9.995,9.995c0,5.519,4.475,9.995,9.995,9.995h23.401c5.52,0,9.995-4.476,9.995-9.995V10.122    C147.927,4.603,143.452,0.127,137.932,0.127z"
   id="path62"
   style="fill:#ffffff" />
	</g>
</g>
<g
   id="g68"
   style="fill:#ffffff">
</g>
<g
   id="g70"
   style="fill:#ffffff">
</g>
<g
   id="g72"
   style="fill:#ffffff">
</g>
<g
   id="g74"
   style="fill:#ffffff">
</g>
<g
   id="g76"
   style="fill:#ffffff">
</g>
<g
   id="g78"
   style="fill:#ffffff">
</g>
<g
   id="g80"
   style="fill:#ffffff">
</g>
<g
   id="g82"
   style="fill:#ffffff">
</g>
<g
   id="g84"
   style="fill:#ffffff">
</g>
<g
   id="g86"
   style="fill:#ffffff">
</g>
<g
   id="g88"
   style="fill:#ffffff">
</g>
<g
   id="g90"
   style="fill:#ffffff">
</g>
<g
   id="g92"
   style="fill:#ffffff">
</g>
<g
   id="g94"
   style="fill:#ffffff">
</g>
<g
   id="g96"
   style="fill:#ffffff">
</g>
</svg>