<?xml version="1.0" encoding="UTF-8" standalone="no"?>
<!-- Generator: Adobe Illustrator 19.0.0, SVG Export Plug-In . SVG Version: 6.00 Build 0)  -->

<svg
   xmlns:dc="http://purl.org/dc/elements/1.1/"
   xmlns:cc="http://creativecommons.org/ns#"
   xmlns:rdf="http://www.w3.org/1999/02/22-rdf-syntax-ns#"
   xmlns:svg="http://www.w3.org/2000/svg"
   xmlns="http://www.w3.org/2000/svg"
   xmlns:sodipodi="http://sodipodi.sourceforge.net/DTD/sodipodi-0.dtd"
   xmlns:inkscape="http://www.inkscape.org/namespaces/inkscape"
   version="1.1"
   id="Capa_1"
   x="0px"
   y="0px"
   viewBox="0 0 512 512"
   style="enable-background:new 0 0 512 512;"
   xml:space="preserve"
   sodipodi:docname="product_white.svg"
   inkscape:version="0.92.3 (2405546, 2018-03-11)"><metadata
   id="metadata61"><rdf:RDF><cc:Work
       rdf:about=""><dc:format>image/svg+xml</dc:format><dc:type
         rdf:resource="http://purl.org/dc/dcmitype/StillImage" /></cc:Work></rdf:RDF></metadata><defs
   id="defs59" /><sodipodi:namedview
   pagecolor="#ffffff"
   bordercolor="#666666"
   borderopacity="1"
   objecttolerance="10"
   gridtolerance="10"
   guidetolerance="10"
   inkscape:pageopacity="0"
   inkscape:pageshadow="2"
   inkscape:window-width="1366"
   inkscape:window-height="715"
   id="namedview57"
   showgrid="false"
   inkscape:zoom="0.4609375"
   inkscape:cx="-14.101695"
   inkscape:cy="256"
   inkscape:window-x="-8"
   inkscape:window-y="-8"
   inkscape:window-maximized="1"
   inkscape:current-layer="Capa_1" />
<g
   id="g6"
   style="fill:#f9f9f9">
	<g
   id="g4"
   style="fill:#f9f9f9">
		<path
   d="M440.673,137.805c-13.234,0-24.001,10.767-24.001,24.001s10.767,24.001,24.001,24.001    c13.235,0,24.001-10.766,24.001-24.001C464.674,148.572,453.907,137.805,440.673,137.805z M440.673,169.806c-4.412,0-8-3.588-8-8    c0-4.412,3.589-8,8-8c4.412,0,8,3.589,8,8C448.673,166.218,445.084,169.806,440.673,169.806z"
   id="path2"
   style="fill:#f9f9f9" />
	</g>
</g>
<g
   id="g12"
   style="fill:#f9f9f9">
	<g
   id="g10"
   style="fill:#f9f9f9">
		<path
   d="M454.028,90.543h-67.256c-10.792,0-19.571-8.78-19.571-19.571c0-19.614-15.958-35.572-35.572-35.572H180.372    c-19.615,0-35.572,15.958-35.572,35.572c0,10.792-8.78,19.571-19.571,19.571H57.972C26.006,90.543,0,116.549,0,148.515v238.104    c0,4.418,3.582,8,8,8s8-3.582,8-8V148.515c0-23.143,18.829-41.971,41.971-41.971h67.256c19.614,0,35.572-15.958,35.572-35.572    c0-10.792,8.78-19.571,19.571-19.571h151.256c10.792,0,19.571,8.78,19.571,19.571c0,19.615,15.958,35.572,35.572,35.572h67.256    c23.143,0,41.971,18.828,41.971,41.971v270.112c0,23.143-18.829,41.972-41.971,41.972H57.972    c-23.143,0-41.971-18.829-41.971-41.972c0-4.418-3.582-8-8-8c-4.418,0-8,3.582-8,8C0,450.594,26.006,476.6,57.972,476.6h396.056    c31.966,0,57.972-26.006,57.972-57.973V148.515C512,116.549,485.994,90.543,454.028,90.543z"
   id="path8"
   style="fill:#f9f9f9" />
	</g>
</g>
<g
   id="g18"
   style="fill:#f9f9f9">
	<g
   id="g16"
   style="fill:#f9f9f9">
		<path
   d="M354.549,232.094c-2.026-3.926-6.85-5.468-10.778-3.441c-3.927,2.026-5.467,6.851-3.441,10.778    c6.965,13.501,10.497,28.107,10.497,43.413c0,52.288-42.54,94.828-94.828,94.828c-52.288,0-94.828-42.54-94.828-94.828    c0-52.288,42.541-94.828,94.829-94.828c23.478,0,46.005,8.644,63.434,24.34c3.282,2.956,8.341,2.692,11.299-0.591    c2.957-3.283,2.692-8.342-0.591-11.299C309.77,182.12,283.439,172.015,256,172.015c-61.111,0-110.828,49.717-110.828,110.828    S194.889,393.672,256,393.672s110.828-49.718,110.828-110.828C366.828,265.212,362.582,247.663,354.549,232.094z"
   id="path14"
   style="fill:#f9f9f9" />
	</g>
</g>
<g
   id="g24"
   style="fill:#f9f9f9">
	<g
   id="g22"
   style="fill:#f9f9f9">
		<path
   d="M95.634,59.832H62.746c-4.418,0-8,3.582-8,8c0,4.418,3.582,8,8,8h32.888c4.418,0,8-3.582,8-8    C103.634,63.414,100.052,59.832,95.634,59.832z"
   id="path20"
   style="fill:#f9f9f9" />
	</g>
</g>
<g
   id="g26"
   style="fill:#f9f9f9">
</g>
<g
   id="g28"
   style="fill:#f9f9f9">
</g>
<g
   id="g30"
   style="fill:#f9f9f9">
</g>
<g
   id="g32"
   style="fill:#f9f9f9">
</g>
<g
   id="g34"
   style="fill:#f9f9f9">
</g>
<g
   id="g36"
   style="fill:#f9f9f9">
</g>
<g
   id="g38"
   style="fill:#f9f9f9">
</g>
<g
   id="g40"
   style="fill:#f9f9f9">
</g>
<g
   id="g42"
   style="fill:#f9f9f9">
</g>
<g
   id="g44"
   style="fill:#f9f9f9">
</g>
<g
   id="g46"
   style="fill:#f9f9f9">
</g>
<g
   id="g48"
   style="fill:#f9f9f9">
</g>
<g
   id="g50"
   style="fill:#f9f9f9">
</g>
<g
   id="g52"
   style="fill:#f9f9f9">
</g>
<g
   id="g54"
   style="fill:#f9f9f9">
</g>
</svg>