<?xml version="1.0" encoding="iso-8859-1"?>
<!-- Generator: Adobe Illustrator 19.0.0, SVG Export Plug-In . SVG Version: 6.00 Build 0)  -->
<svg version="1.1" id="Capa_1" xmlns="http://www.w3.org/2000/svg" xmlns:xlink="http://www.w3.org/1999/xlink" x="0px" y="0px"
	 viewBox="0 0 512 512" style="enable-background:new 0 0 512 512;" xml:space="preserve">
<path style="fill:#737E9B;" d="M96,108H63V73.417C63,70.332,65.247,68,68.332,68h21.716C93.133,68,96,70.332,96,73.417V108z"/>
<path style="fill:#425775;" d="M96,108H63V88.569C63,86.198,64.668,84,67.039,84h24.302C93.712,84,96,86.198,96,88.569V108z"/>
<path style="fill:#959CB3;" d="M359.2,71.2v-0.314C359.2,55.659,346.856,43,331.628,43H180.372
	C165.144,43,152.8,55.544,152.8,70.772V71.1c0,15.227-12.344,27.9-27.572,27.9H57.972C30.373,99,8,120.917,8,148.516v270.112
	C8,446.226,30.373,469,57.972,469h396.056C481.627,469,504,446.226,504,418.628V148.516C504,120.917,481.627,99,454.028,99h-67.257
	C371.544,99,359.2,86.428,359.2,71.2z"/>
<circle style="fill:#FFD2D1;" cx="440.67" cy="161.81" r="16"/>
<path style="fill:#8A94B2;" d="M467.497,100.395c0.06,2.532,0.096,5.069,0.096,7.615c0,173.536-140.679,314.214-314.214,314.214
	C100.921,422.225,51,409.352,8,386.619v32.008C8,446.226,30.373,469,57.972,469h396.056C481.627,469,504,446.226,504,418.628
	V148.516C504,125.586,488.55,106.277,467.497,100.395z"/>
<circle style="fill:#737E9B;" cx="256" cy="282.84" r="140.08"/>
<circle style="fill:#E4EAF5;" cx="256" cy="282.84" r="102.83"/>
<circle style="fill:#FFFFFF;" cx="225.06" cy="256" r="38.32"/>
<path d="M464.674,161.806c0-13.234-10.767-24.001-24.001-24.001s-24.001,10.767-24.001,24.001s10.767,24.001,24.001,24.001
	C453.908,185.807,464.674,175.041,464.674,161.806z M432.673,161.806c0-4.412,3.589-8,8-8c4.412,0,8,3.589,8,8c0,4.412-3.589,8-8,8
	C436.261,169.806,432.673,166.218,432.673,161.806z"/>
<path d="M454.028,91h-67.256C375.98,91,367.2,81.792,367.2,71c0-19.614-15.958-36-35.572-36H180.372
	C160.757,35,144.8,51.386,144.8,71c0,10.792-8.78,20-19.571,20H57.972C26.006,91,0,116.549,0,148.515v238.104c0,4.418,3.582,8,8,8
	s8-3.582,8-8V148.515C16,125.372,34.829,107,57.972,107h67.256c19.614,0,35.572-16.386,35.572-36c0-10.792,8.78-20,19.571-20
	h151.256c10.792,0,19.571,9.208,19.571,20c0,19.614,15.958,36,35.572,36h67.256C477.171,107,496,125.372,496,148.515v270.112
	C496,441.771,477.171,461,454.028,461H57.972c-23.143,0-41.971-19.029-41.971-42.172c0-4.418-3.582-8.101-8-8.101s-8,3.732-8,8.15
	C0,450.844,26.006,477,57.972,477h396.056C485.994,477,512,450.594,512,418.627V148.515C512,116.549,485.994,91,454.028,91z"/>
<path d="M256,188.016c23.478,0,46.005,8.644,63.434,24.34c3.282,2.956,8.341,2.692,11.299-0.591
	c2.957-3.283,2.692-8.342-0.591-11.299C309.77,182.12,283.439,172.015,256,172.015c-61.111,0-110.828,49.717-110.828,110.828
	S194.889,393.672,256,393.672s110.828-49.718,110.828-110.828c0-17.632-4.246-35.181-12.279-50.75
	c-2.026-3.926-6.85-5.468-10.778-3.441c-3.927,2.026-5.467,6.851-3.441,10.778c6.965,13.501,10.497,28.107,10.497,43.413
	c0,52.288-42.54,94.828-94.828,94.828s-94.828-42.54-94.828-94.828S203.712,188.016,256,188.016z"/>
<path d="M62.746,76h32.888c4.418,0,8-3.582,8-8s-3.582-8-8-8H62.746c-4.418,0-8,3.582-8,8S58.328,76,62.746,76z"/>
<g>
</g>
<g>
</g>
<g>
</g>
<g>
</g>
<g>
</g>
<g>
</g>
<g>
</g>
<g>
</g>
<g>
</g>
<g>
</g>
<g>
</g>
<g>
</g>
<g>
</g>
<g>
</g>
<g>
</g>
</svg>
