<?xml version="1.0" encoding="UTF-8" standalone="no"?>
<!-- Generator: Adobe Illustrator 19.0.0, SVG Export Plug-In . SVG Version: 6.00 Build 0)  -->

<svg
   xmlns:dc="http://purl.org/dc/elements/1.1/"
   xmlns:cc="http://creativecommons.org/ns#"
   xmlns:rdf="http://www.w3.org/1999/02/22-rdf-syntax-ns#"
   xmlns:svg="http://www.w3.org/2000/svg"
   xmlns="http://www.w3.org/2000/svg"
   xmlns:sodipodi="http://sodipodi.sourceforge.net/DTD/sodipodi-0.dtd"
   xmlns:inkscape="http://www.inkscape.org/namespaces/inkscape"
   version="1.1"
   id="Capa_1"
   x="0px"
   y="0px"
   viewBox="0 0 512 512"
   style="enable-background:new 0 0 512 512;"
   xml:space="preserve"
   sodipodi:docname="user_white.svg"
   inkscape:version="0.92.3 (2405546, 2018-03-11)"><metadata
   id="metadata55"><rdf:RDF><cc:Work
       rdf:about=""><dc:format>image/svg+xml</dc:format><dc:type
         rdf:resource="http://purl.org/dc/dcmitype/StillImage" /></cc:Work></rdf:RDF></metadata><defs
   id="defs53" /><sodipodi:namedview
   pagecolor="#ffffff"
   bordercolor="#666666"
   borderopacity="1"
   objecttolerance="10"
   gridtolerance="10"
   guidetolerance="10"
   inkscape:pageopacity="0"
   inkscape:pageshadow="2"
   inkscape:window-width="1366"
   inkscape:window-height="715"
   id="namedview51"
   showgrid="false"
   inkscape:zoom="0.4609375"
   inkscape:cx="-14.101695"
   inkscape:cy="256"
   inkscape:window-x="-8"
   inkscape:window-y="-8"
   inkscape:window-maximized="1"
   inkscape:current-layer="Capa_1" />
<g
   id="g6"
   style="fill:#f9f9f9">
	<g
   id="g4"
   style="fill:#f9f9f9">
		<path
   d="M349.276,87.26c-43.784,0-79.405,35.621-79.405,79.405s35.621,79.405,79.405,79.405s79.405-35.621,79.405-79.405    S393.06,87.26,349.276,87.26z M349.276,230.753c-35.338,0-64.088-28.75-64.088-64.088c0-35.338,28.75-64.088,64.088-64.088    s64.088,28.75,64.088,64.088S384.614,230.753,349.276,230.753z"
   id="path2"
   style="fill:#f9f9f9" />
	</g>
</g>
<g
   id="g12"
   style="fill:#f9f9f9">
	<g
   id="g10"
   style="fill:#f9f9f9">
		<path
   d="M418.64,267.844h-94.371c-4.23,0-7.659,3.429-7.659,7.659c0,4.23,3.429,7.659,7.659,7.659h94.371    c43.033,0,78.042,35.009,78.042,78.042v46.267c0,1.077-0.876,1.952-1.953,1.952h-41.315v-41.491c0-4.23-3.429-7.659-7.659-7.659    c-4.23,0-7.659,3.429-7.659,7.659v41.491H331.81c0.073-0.642,0.118-1.291,0.118-1.952v-46.267    c0-51.478-41.881-93.359-93.36-93.359H93.36C41.881,267.844,0,309.726,0,361.203v46.267c0,9.523,7.748,17.27,17.27,17.27h180.072    h117.315H494.73c9.523,0,17.27-7.747,17.27-17.27v-46.267C512,309.726,470.119,267.844,418.64,267.844z M316.609,407.471    c0,1.077-0.876,1.952-1.953,1.952H269.88v-41.491c0-4.23-3.429-7.659-7.659-7.659c-4.23,0-7.659,3.429-7.659,7.659v41.491h-57.22    H74.941v-41.491c0-4.23-3.429-7.659-7.659-7.659c-4.23,0-7.659,3.429-7.659,7.659v41.491H17.27c-1.077,0-1.953-0.876-1.953-1.952    v-46.267c0-43.032,35.009-78.042,78.042-78.042h145.208c43.033,0,78.042,35.009,78.042,78.042V407.471z"
   id="path8"
   style="fill:#f9f9f9" />
	</g>
</g>
<g
   id="g18"
   style="fill:#f9f9f9">
	<g
   id="g16"
   style="fill:#f9f9f9">
		<path
   d="M169.204,87.26c-43.784,0-79.405,35.621-79.405,79.405s35.621,79.405,79.405,79.405s79.405-35.621,79.405-79.405    S212.988,87.26,169.204,87.26z M169.204,230.753c-35.338,0-64.088-28.75-64.088-64.088c0-35.338,28.75-64.088,64.088-64.088    c35.338,0,64.088,28.75,64.088,64.088S204.542,230.753,169.204,230.753z"
   id="path14"
   style="fill:#f9f9f9" />
	</g>
</g>
<g
   id="g20"
   style="fill:#f9f9f9">
</g>
<g
   id="g22"
   style="fill:#f9f9f9">
</g>
<g
   id="g24"
   style="fill:#f9f9f9">
</g>
<g
   id="g26"
   style="fill:#f9f9f9">
</g>
<g
   id="g28"
   style="fill:#f9f9f9">
</g>
<g
   id="g30"
   style="fill:#f9f9f9">
</g>
<g
   id="g32"
   style="fill:#f9f9f9">
</g>
<g
   id="g34"
   style="fill:#f9f9f9">
</g>
<g
   id="g36"
   style="fill:#f9f9f9">
</g>
<g
   id="g38"
   style="fill:#f9f9f9">
</g>
<g
   id="g40"
   style="fill:#f9f9f9">
</g>
<g
   id="g42"
   style="fill:#f9f9f9">
</g>
<g
   id="g44"
   style="fill:#f9f9f9">
</g>
<g
   id="g46"
   style="fill:#f9f9f9">
</g>
<g
   id="g48"
   style="fill:#f9f9f9">
</g>
</svg>