<?xml version="1.0" encoding="iso-8859-1"?>
<!-- Generator: Adobe Illustrator 19.0.0, SVG Export Plug-In . SVG Version: 6.00 Build 0)  -->
<svg version="1.1" id="Capa_1" xmlns="http://www.w3.org/2000/svg" xmlns:xlink="http://www.w3.org/1999/xlink" x="0px" y="0px"
	 viewBox="0 0 512 512" style="enable-background:new 0 0 512 512;" xml:space="preserve">
<g>
	<circle style="fill:#0094E3;" cx="349.28" cy="166.529" r="71.75"/>
	<path style="fill:#0094E3;" d="M494.73,416.87H197.342c-5.308,0-9.342-4.221-9.342-9.529v-46.267
		c0-47.331,38.101-85.205,85.432-85.205H418.64c47.331,0,85.36,37.873,85.36,85.205v46.267
		C504,412.649,500.038,416.87,494.73,416.87z"/>
</g>
<circle style="fill:#175BE7;" cx="169.2" cy="166.529" r="71.75"/>
<path style="fill:#0E82E2;" d="M330.464,275.87h-58.587c-47.331,0-85.876,37.873-85.876,85.205v46.267
	c0,5.308,4.479,9.529,9.787,9.529H367v-64.457C367,321.286,352.929,293.87,330.464,275.87z"/>
<path style="fill:#175BE7;" d="M314.658,416.87H17.27c-5.308,0-9.27-4.221-9.27-9.529v-46.267c0-47.331,38.029-85.205,85.36-85.205
	h145.208c47.331,0,85.432,37.873,85.432,85.205v46.267C324,412.649,319.966,416.87,314.658,416.87z"/>
<path d="M349.276,245.939c43.784,0,79.405-35.621,79.405-79.405S393.06,87.13,349.276,87.13s-79.405,35.621-79.405,79.405
	S305.492,245.939,349.276,245.939z M349.276,102.446c35.338,0,64.088,28.75,64.088,64.088s-28.75,64.088-64.088,64.088
	s-64.088-28.75-64.088-64.088S313.938,102.446,349.276,102.446z"/>
<path d="M418.64,267.87h-94.371c-4.23,0-7.659,3.27-7.659,7.5c0,4.23,3.429,7.5,7.659,7.5h94.371
	c43.033,0,78.36,35.172,78.36,78.204v46.267c0,1.077-1.194,1.529-2.27,1.529H453v-41.068c0-4.23-3.27-7.659-7.5-7.659
	s-7.5,3.429-7.5,7.659v41.068H331.81c0.073,0,0.19-0.868,0.19-1.529v-46.267c0-51.478-41.953-93.204-93.432-93.204H93.36
	C41.881,267.87,0,309.596,0,361.075v46.267c0,9.523,7.748,17.529,17.27,17.529h180.072h117.315H494.73
	c9.523,0,17.27-8.006,17.27-17.529v-46.267C512,309.596,470.119,267.87,418.64,267.87z M270,408.87v-41.068
	c0-4.23-3.27-7.659-7.5-7.659s-7.5,3.429-7.5,7.659v41.068h-57.658H75v-41.068c0-4.23-3.27-7.659-7.5-7.659s-7.5,3.429-7.5,7.659
	v41.068H17.27c-1.077,0-2.27-0.452-2.27-1.529v-46.267c0-43.032,35.327-78.204,78.36-78.204h145.208
	c43.033,0,78.432,35.172,78.432,78.204v46.267c0,1.077-1.266,1.529-2.342,1.529H270z"/>
<path d="M169.204,245.939c43.784,0,79.405-35.621,79.405-79.405S212.988,87.13,169.204,87.13s-79.405,35.621-79.405,79.405
	S125.42,245.939,169.204,245.939z M169.204,102.446c35.338,0,64.088,28.75,64.088,64.088s-28.75,64.088-64.088,64.088
	s-64.088-28.75-64.088-64.088S133.866,102.446,169.204,102.446z"/>
<g>
</g>
<g>
</g>
<g>
</g>
<g>
</g>
<g>
</g>
<g>
</g>
<g>
</g>
<g>
</g>
<g>
</g>
<g>
</g>
<g>
</g>
<g>
</g>
<g>
</g>
<g>
</g>
<g>
</g>
</svg>
